<svg xmlns="http://www.w3.org/2000/svg" viewBox="0 0 262.46 220.74"><defs><style>.cls-1{fill:#fff;}.cls-2{fill:#deafe6;}</style></defs><g id="Capa_2" data-name="Capa 2"><g id="Capa_1-2" data-name="Capa 1"><g id="Capa_2-2" data-name="Capa 2"><g id="Capa_2-2-2" data-name="Capa 2-2"><rect class="cls-1" width="262.46" height="220.74" rx="22.12"/></g></g><path class="cls-2" d="M68.21,144.12a1.31,1.31,0,0,1-1.28-.93l-7-16.11a1,1,0,0,1,0-1,1.07,1.07,0,0,1,.85-.37,1,1,0,0,1,.7.22,1.79,1.79,0,0,1,.42.63l6.35,14.72,6.33-14.75a1.5,1.5,0,0,1,.44-.61,1.12,1.12,0,0,1,.71-.21.88.88,0,0,1,.8.4,1,1,0,0,1,0,1l-7,16.11a1.66,1.66,0,0,1-.48.69A1.17,1.17,0,0,1,68.21,144.12Z"/><path class="cls-2" d="M80.58,128.49c-.91,0-1.36-.42-1.36-1.28s.45-1.25,1.36-1.25,1.36.42,1.36,1.25S81.48,128.49,80.58,128.49Zm0,15.57c-.68,0-1-.37-1-1.12V132.46c0-.73.35-1.1,1-1.1s1,.37,1,1.1v10.48C81.63,143.69,81.28,144.06,80.58,144.06Z"/><path class="cls-2" d="M89.7,144.17a9.12,9.12,0,0,1-2.32-.3,6.65,6.65,0,0,1-2.16-1,.81.81,0,0,1-.45-.73.84.84,0,0,1,.34-.7.77.77,0,0,1,.85,0,6.89,6.89,0,0,0,3.79,1.1A3.77,3.77,0,0,0,92,142a1.7,1.7,0,0,0,.74-1.46,1.46,1.46,0,0,0-.48-1.14,3.46,3.46,0,0,0-1.54-.65l-2.33-.51c-2.12-.46-3.18-1.56-3.18-3.28a3.26,3.26,0,0,1,1.35-2.72,5.66,5.66,0,0,1,3.52-1,8,8,0,0,1,2.13.29,5.35,5.35,0,0,1,1.84.94.77.77,0,0,1,.38.74.91.91,0,0,1-.39.68.72.72,0,0,1-.84-.06,5.64,5.64,0,0,0-1.56-.76,5.18,5.18,0,0,0-1.56-.24,3.51,3.51,0,0,0-2.18.56,1.78,1.78,0,0,0-.74,1.49c0,1,.63,1.57,1.9,1.84l2.33.49a5.33,5.33,0,0,1,2.48,1.14,2.72,2.72,0,0,1,.85,2.11,3.18,3.18,0,0,1-1.36,2.7A6,6,0,0,1,89.7,144.17Z"/><path class="cls-2" d="M98.84,128.49c-.91,0-1.36-.42-1.36-1.28s.45-1.25,1.36-1.25,1.36.42,1.36,1.25S99.74,128.49,98.84,128.49Zm0,15.57c-.68,0-1-.37-1-1.12V132.46c0-.73.35-1.1,1-1.1s1,.37,1,1.1v10.48C99.89,143.69,99.54,144.06,98.84,144.06Z"/><path class="cls-2" d="M108.75,144.17a4.31,4.31,0,0,1-3.3-1.17,4.71,4.71,0,0,1-1.1-3.37V133.1h-1.72c-.6,0-.9-.27-.9-.82s.3-.79.9-.79h1.72v-3a1,1,0,0,1,2.07,0v3h3.23c.59,0,.89.26.89.79s-.3.82-.89.82h-3.23v6.33a3.41,3.41,0,0,0,.61,2.21,2.42,2.42,0,0,0,2,.76,2.84,2.84,0,0,0,.82-.1,2,2,0,0,1,.59-.11.45.45,0,0,1,.38.16.88.88,0,0,1,.16.61,1.39,1.39,0,0,1-.12.57.59.59,0,0,1-.39.35,6,6,0,0,1-.81.2A4.6,4.6,0,0,1,108.75,144.17Z"/><path class="cls-2" d="M116.64,144.17a5.17,5.17,0,0,1-2.29-.5,4.08,4.08,0,0,1-1.6-1.37,3.4,3.4,0,0,1-.59-2,3.15,3.15,0,0,1,.7-2.15,4.21,4.21,0,0,1,2.33-1.14,22.9,22.9,0,0,1,4.45-.35h.81v-.79a3.25,3.25,0,0,0-.65-2.29,2.72,2.72,0,0,0-2.09-.71,7.28,7.28,0,0,0-1.8.23,9.22,9.22,0,0,0-1.88.75.82.82,0,0,1-.73.09.81.81,0,0,1-.41-.46,1,1,0,0,1,0-.67.87.87,0,0,1,.5-.53,10.12,10.12,0,0,1,2.21-.82,9.36,9.36,0,0,1,2.11-.25,4.83,4.83,0,0,1,3.58,1.18,5,5,0,0,1,1.16,3.66V143c0,.72-.31,1.08-.94,1.08s-1-.36-1-1.08v-1.26a3.93,3.93,0,0,1-1.5,1.75A4.41,4.41,0,0,1,116.64,144.17Zm.33-1.57a3.23,3.23,0,0,0,2.51-1.06,3.84,3.84,0,0,0,1-2.7v-.77h-.79a22.2,22.2,0,0,0-3.26.19,3,3,0,0,0-1.67.67,1.71,1.71,0,0,0-.47,1.29,2.25,2.25,0,0,0,.73,1.72,2.85,2.85,0,0,0,2,.66Z"/><path class="cls-2" d="M127.32,144.12c-.68,0-1-.36-1-1.08V132.36c0-.7.34-1.05,1-1.05a.92.92,0,0,1,1,.83,1.62,1.62,0,0,1,0,.22v1.25a4.05,4.05,0,0,1,1.74-1.76,5.41,5.41,0,0,1,2.53-.59c3,0,4.43,1.64,4.43,4.92V143c0,.72-.33,1.08-1,1.08a.94.94,0,0,1-1-.84,1.93,1.93,0,0,1,0-.24v-6.7a3.94,3.94,0,0,0-.68-2.54,2.68,2.68,0,0,0-2.16-.81,3.58,3.58,0,0,0-2.73,1.06,3.87,3.87,0,0,0-1,2.83V143a.94.94,0,0,1-.72,1.12A.86.86,0,0,1,127.32,144.12Z"/><path class="cls-2" d="M146,144.17a6,6,0,0,1-3.15-.8,5.37,5.37,0,0,1-2.06-2.24,8.4,8.4,0,0,1,0-6.84,5.43,5.43,0,0,1,2.06-2.24,6.67,6.67,0,0,1,6.29,0,5.35,5.35,0,0,1,2.08,2.24,8.4,8.4,0,0,1,0,6.84,5.35,5.35,0,0,1-2.08,2.24A6,6,0,0,1,146,144.17Zm0-1.67a3.5,3.5,0,0,0,2.8-1.24,6.54,6.54,0,0,0,0-7.11,3.8,3.8,0,0,0-5.6,0,6.58,6.58,0,0,0,0,7.11A3.46,3.46,0,0,0,146,142.5Z"/><path class="cls-2" d="M159.28,144.17a9.12,9.12,0,0,1-2.32-.3,6.75,6.75,0,0,1-2.16-1,.81.81,0,0,1-.45-.73.86.86,0,0,1,.35-.7.76.76,0,0,1,.84,0,6.89,6.89,0,0,0,3.79,1.1,3.71,3.71,0,0,0,2.2-.54,1.71,1.71,0,0,0,.75-1.46,1.43,1.43,0,0,0-.49-1.14,3.46,3.46,0,0,0-1.54-.65l-2.33-.51c-2.11-.46-3.17-1.56-3.17-3.28a3.25,3.25,0,0,1,1.34-2.72,5.72,5.72,0,0,1,3.52-1,8,8,0,0,1,2.13.29,5.35,5.35,0,0,1,1.84.94.79.79,0,0,1,.39.74,1,1,0,0,1-.4.68.72.72,0,0,1-.83-.06,5.64,5.64,0,0,0-1.56-.76,5.25,5.25,0,0,0-1.57-.24,3.46,3.46,0,0,0-2.17.56,1.79,1.79,0,0,0-.75,1.49c0,1,.64,1.57,1.9,1.84l2.33.49a5.33,5.33,0,0,1,2.48,1.14,2.71,2.71,0,0,1,.85,2.11,3.15,3.15,0,0,1-1.36,2.7A6,6,0,0,1,159.28,144.17Z"/><path class="cls-2" d="M179.62,144.17a6.3,6.3,0,0,1-4.67-1.73,6.43,6.43,0,0,1-1.71-4.7,7.15,7.15,0,0,1,.77-3.4,5.5,5.5,0,0,1,2.11-2.27,6,6,0,0,1,3.11-.81,5,5,0,0,1,4,1.63,6.49,6.49,0,0,1,1.44,4.46c0,.53-.3.8-.9.8h-8.48a4.67,4.67,0,0,0,1.23,3.24,4.25,4.25,0,0,0,3.13,1.11,6.58,6.58,0,0,0,1.71-.22,5,5,0,0,0,1.69-.78.94.94,0,0,1,1-.15.81.81,0,0,1,.41.7,1,1,0,0,1-.53.84,6.22,6.22,0,0,1-2,.94A7.88,7.88,0,0,1,179.62,144.17Zm-.34-11.37a3.56,3.56,0,0,0-2.79,1.1,4.83,4.83,0,0,0-1.2,2.89h7.55a4.67,4.67,0,0,0-1-2.94A3.22,3.22,0,0,0,179.28,132.8Z"/><path class="cls-2" d="M188.66,144.12c-.69,0-1-.36-1-1.08V132.36c0-.7.33-1.05,1-1.05a.92.92,0,0,1,1,.83,1.62,1.62,0,0,1,0,.22v1.25a4,4,0,0,1,1.75-1.76,5.41,5.41,0,0,1,2.53-.59c3,0,4.43,1.64,4.43,4.92V143c0,.72-.33,1.08-1,1.08a.94.94,0,0,1-1.05-.81.82.82,0,0,1,0-.27v-6.7a3.94,3.94,0,0,0-.68-2.54,2.67,2.67,0,0,0-2.17-.81,3.54,3.54,0,0,0-2.72,1.06,3.87,3.87,0,0,0-1,2.83V143a1,1,0,0,1-.72,1.12A1.15,1.15,0,0,1,188.66,144.12Z"/><path class="cls-2" d="M29,174.06a1.84,1.84,0,0,1-1.68-.8,2,2,0,0,1,0-2l8.87-19.68a3.19,3.19,0,0,1,1.07-1.39,2.42,2.42,0,0,1,1.43-.42,2.39,2.39,0,0,1,1.39.42,3.22,3.22,0,0,1,1.06,1.39L50,171.3a2,2,0,0,1,0,2,1.7,1.7,0,0,1-1.6.79,2.22,2.22,0,0,1-1.47-.45,3.75,3.75,0,0,1-.92-1.4l-1.68-3.94H32.89l-1.65,3.94a4.26,4.26,0,0,1-.91,1.42A2,2,0,0,1,29,174.06Zm9.65-19.29-4.28,10.12H43L38.7,154.77Z"/><path class="cls-2" d="M59.07,174.06a2.64,2.64,0,0,1-2.5-1.79l-5.34-12.39a2.16,2.16,0,0,1,0-1.95,1.88,1.88,0,0,1,1.83-.84,2.06,2.06,0,0,1,1.31.36,2.94,2.94,0,0,1,.84,1.31l4,10.08,4.17-10.12a2.87,2.87,0,0,1,.85-1.31,2.26,2.26,0,0,1,1.31-.36,1.57,1.57,0,0,1,1.52.84,2.1,2.1,0,0,1,0,1.92l-5.44,12.42A2.54,2.54,0,0,1,59.07,174.06Z"/><path class="cls-2" d="M70.52,174a2.48,2.48,0,0,1-1.84-.71,2.52,2.52,0,0,1-.68-1.83,2.37,2.37,0,0,1,.68-1.75,2.48,2.48,0,0,1,1.84-.7A2.32,2.32,0,0,1,73,171.43a2.66,2.66,0,0,1-.65,1.83A2.41,2.41,0,0,1,70.52,174Z"/><path class="cls-2" d="M97,174.12a11.66,11.66,0,0,1-6-1.5A10.35,10.35,0,0,1,87,168.36a15.34,15.34,0,0,1,0-12.88A10.29,10.29,0,0,1,91,151.27a12.81,12.81,0,0,1,12,0,10.25,10.25,0,0,1,3.94,4.21,13.7,13.7,0,0,1,1.42,6.42,13.92,13.92,0,0,1-1.42,6.46,10.37,10.37,0,0,1-3.94,4.26A11.55,11.55,0,0,1,97,174.12Zm0-3.68a6.16,6.16,0,0,0,5.06-2.26,11.67,11.67,0,0,0,0-12.5,6.94,6.94,0,0,0-9.81-.36,4,4,0,0,0-.35.36,11.59,11.59,0,0,0,0,12.5,6.15,6.15,0,0,0,5.1,2.27Z"/><path class="cls-2" d="M118.33,174.12a15.72,15.72,0,0,1-3.06-.3,9.19,9.19,0,0,1-2.88-1,1.76,1.76,0,0,1-.88-1,1.6,1.6,0,0,1,0-1.1,1.29,1.29,0,0,1,.74-.76,1.38,1.38,0,0,1,1.22.1,12,12,0,0,0,2.52.89,10.79,10.79,0,0,0,2.33.25,4.21,4.21,0,0,0,2.4-.55,1.71,1.71,0,0,0,.78-1.47c0-.93-.69-1.55-2.07-1.81l-3.37-.64c-2.83-.54-4.26-2-4.26-4.44a4.42,4.42,0,0,1,.89-2.78,5.7,5.7,0,0,1,2.46-1.82,9.83,9.83,0,0,1,3.64-.63,10.5,10.5,0,0,1,5.25,1.31,1.33,1.33,0,0,1,.76.92,1.77,1.77,0,0,1-.15,1.11,1.48,1.48,0,0,1-.78.74,1.52,1.52,0,0,1-1.25-.12,9.3,9.3,0,0,0-2-.77,7.07,7.07,0,0,0-1.83-.24,4.14,4.14,0,0,0-2.43.58,1.77,1.77,0,0,0-.79,1.51c0,1,.63,1.58,1.92,1.81l3.36.64a6.26,6.26,0,0,1,3.3,1.48,3.81,3.81,0,0,1,1.13,2.89,4.52,4.52,0,0,1-1.91,3.84A8.5,8.5,0,0,1,118.33,174.12Z"/><path class="cls-2" d="M134.73,174.12a15.72,15.72,0,0,1-3.06-.3,9.19,9.19,0,0,1-2.88-1,1.76,1.76,0,0,1-.88-1,1.6,1.6,0,0,1,0-1.1,1.29,1.29,0,0,1,.74-.76,1.38,1.38,0,0,1,1.22.1,12,12,0,0,0,2.52.89,10.79,10.79,0,0,0,2.33.25,4.21,4.21,0,0,0,2.4-.55,1.71,1.71,0,0,0,.78-1.47c0-.93-.69-1.55-2.08-1.81l-3.36-.64c-2.85-.54-4.26-2-4.26-4.44a4.42,4.42,0,0,1,.89-2.78,5.7,5.7,0,0,1,2.46-1.82,9.63,9.63,0,0,1,3.64-.63,10.5,10.5,0,0,1,5.25,1.31,1.28,1.28,0,0,1,.74.92,1.64,1.64,0,0,1-.13,1.11,1.48,1.48,0,0,1-.78.74A1.52,1.52,0,0,1,139,161a9.43,9.43,0,0,0-2-.77,7.21,7.21,0,0,0-1.84-.24,4.17,4.17,0,0,0-2.44.58,1.77,1.77,0,0,0-.79,1.51c0,1,.64,1.58,1.92,1.81l3.35.64a6.36,6.36,0,0,1,3.32,1.48,3.77,3.77,0,0,1,1.12,2.89,4.48,4.48,0,0,1-1.92,3.84A8.42,8.42,0,0,1,134.73,174.12Z"/><path class="cls-2" d="M150.53,174.12a7,7,0,0,1-3.18-.68,5.63,5.63,0,0,1-2.19-1.86,4.72,4.72,0,0,1-.79-2.63,4.17,4.17,0,0,1,.95-2.87,5.64,5.64,0,0,1,3.05-1.52,27.12,27.12,0,0,1,5.68-.47h1.19v-.71a3.33,3.33,0,0,0-.75-2.42,3.42,3.42,0,0,0-2.48-.74,9.86,9.86,0,0,0-2.1.23,11.17,11.17,0,0,0-2.38.82,1.44,1.44,0,0,1-1.31.07,1.4,1.4,0,0,1-.73-.9,1.85,1.85,0,0,1,.08-1.31,1.66,1.66,0,0,1,1-.95,15.53,15.53,0,0,1,3-.9,14.56,14.56,0,0,1,2.63-.26,7.48,7.48,0,0,1,5.34,1.66,6.8,6.8,0,0,1,1.68,5.21V172c0,1.44-.64,2.15-1.94,2.15s-2-.71-2-2.15v-.74a4.67,4.67,0,0,1-1.83,2.17A5.35,5.35,0,0,1,150.53,174.12Zm.87-2.88a3.62,3.62,0,0,0,2.73-1.14,4,4,0,0,0,1.11-2.89v-.7h-1.16a13.22,13.22,0,0,0-4.38.5,1.75,1.75,0,0,0-1.22,1.76,2.34,2.34,0,0,0,.77,1.81A3.05,3.05,0,0,0,151.4,171.24Z"/><path class="cls-2" d="M175.25,174.21a2.17,2.17,0,0,1-1.58-.5,2,2,0,0,1-.5-1.45,2.31,2.31,0,0,1,.31-1.12,6,6,0,0,1,.89-1.16l6.85-7.3a12.9,12.9,0,0,0,2.25-3,5.92,5.92,0,0,0,.68-2.72c0-2.31-1.39-3.47-4.19-3.47a8.43,8.43,0,0,0-2.32.32,8.32,8.32,0,0,0-2.35,1.11,1.58,1.58,0,0,1-1.4.3,1.65,1.65,0,0,1-1-.83,2,2,0,0,1-.22-1.35,1.86,1.86,0,0,1,.87-1.23,11.49,11.49,0,0,1,3.29-1.5,13.6,13.6,0,0,1,3.67-.51,8.92,8.92,0,0,1,5.91,1.74,6.14,6.14,0,0,1,2.06,5,9,9,0,0,1-1,4.19,19.45,19.45,0,0,1-3.26,4.34l-5.29,5.52h8.9c1.25,0,1.88.59,1.88,1.77a1.65,1.65,0,0,1-1.88,1.85Z"/><path class="cls-2" d="M200.93,174.55a16.18,16.18,0,0,1-3.82-.48,11.16,11.16,0,0,1-3.44-1.43,2.24,2.24,0,0,1-1-1.32,1.74,1.74,0,0,1,.17-1.33,1.7,1.7,0,0,1,1-.8,2.14,2.14,0,0,1,1.58.27,11.44,11.44,0,0,0,2.7,1.08,10.7,10.7,0,0,0,2.66.32q4.6,0,4.6-3.61a2.93,2.93,0,0,0-1.14-2.54,5.57,5.57,0,0,0-3.33-.84h-2.18a2,2,0,0,1-1.45-.48,1.74,1.74,0,0,1-.49-1.33,1.77,1.77,0,0,1,.49-1.33,2,2,0,0,1,1.45-.47h1.77a4.57,4.57,0,0,0,3-.94,3.22,3.22,0,0,0,1.12-2.61,2.86,2.86,0,0,0-1-2.39,4.82,4.82,0,0,0-3-.81,9,9,0,0,0-2.37.29,9.61,9.61,0,0,0-2.44,1.07,1.69,1.69,0,0,1-1.43.26,1.86,1.86,0,0,1-1-.82,1.83,1.83,0,0,1-.22-1.32,1.9,1.9,0,0,1,1-1.22,12.37,12.37,0,0,1,6.89-2,9,9,0,0,1,5.83,1.69,5.7,5.7,0,0,1,2.08,4.69,5.94,5.94,0,0,1-1,3.41,5.48,5.48,0,0,1-2.69,2.11,5.85,5.85,0,0,1,3.24,2.14,6.69,6.69,0,0,1-1.16,8.83A9.93,9.93,0,0,1,200.93,174.55Z"/><path class="cls-2" d="M222.08,174.55a14.84,14.84,0,0,1-3.69-.48A11.88,11.88,0,0,1,215,172.6a1.9,1.9,0,0,1-.78-2.61,1.71,1.71,0,0,1,1-.85,1.86,1.86,0,0,1,1.52.26,12.09,12.09,0,0,0,2.56,1.09,9.85,9.85,0,0,0,2.76.37,4.8,4.8,0,0,0,3.36-1.11,3.85,3.85,0,0,0,1.21-3,4,4,0,0,0-4.33-4.26,6.34,6.34,0,0,0-2.12.36,5.91,5.91,0,0,0-2,1.24,4.22,4.22,0,0,1-.78.53,2.16,2.16,0,0,1-1,.26,1.51,1.51,0,0,1-1.74-1.68V152.07a1.69,1.69,0,0,1,1.91-1.91H227.7c1.28,0,1.91.61,1.91,1.81s-.63,1.81-1.91,1.81h-8.86v6.51a7.12,7.12,0,0,1,4.43-1.36,7.79,7.79,0,0,1,4,1,6.87,6.87,0,0,1,2.63,2.69,8.33,8.33,0,0,1,.94,4,8,8,0,0,1-1.06,4.14,7.25,7.25,0,0,1-3,2.8A10.09,10.09,0,0,1,222.08,174.55Z"/><path class="cls-2" d="M73.49,202a1.72,1.72,0,0,1-1.93-1.48,1.93,1.93,0,0,1,0-.48V183a1.9,1.9,0,1,1,3.8,0h0v15.82H83.9c1.16,0,1.66.53,1.66,1.6A1.44,1.44,0,0,1,84.33,202a1.55,1.55,0,0,1-.43,0Z"/><path class="cls-2" d="M92.6,202.33a6.3,6.3,0,0,1-2.8-.6,4.86,4.86,0,0,1-1.92-1.65,4,4,0,0,1-.69-2.31,3.63,3.63,0,0,1,.82-2.53,5,5,0,0,1,2.69-1.34,23.39,23.39,0,0,1,5-.42h1v-.62a3,3,0,0,0-.64-2.13,3,3,0,0,0-2.2-.65,8.2,8.2,0,0,0-1.85.21,9.6,9.6,0,0,0-2.1.7,1.18,1.18,0,0,1-1.79-.73,1.63,1.63,0,0,1,0-1.15,1.53,1.53,0,0,1,.9-.83,13.52,13.52,0,0,1,2.63-.8,12,12,0,0,1,2.31-.23,6.54,6.54,0,0,1,4.71,1.46,6,6,0,0,1,1.55,4.55v7.1c0,1.27-.58,1.9-1.72,1.9s-1.75-.63-1.75-1.9v-.65a4,4,0,0,1-1.6,1.91A4.76,4.76,0,0,1,92.6,202.33Zm.78-2.55a3.21,3.21,0,0,0,2.41-1,3.55,3.55,0,0,0,1-2.55v-.66h-1a11.82,11.82,0,0,0-3.88.44,1.53,1.53,0,0,0-1.07,1.55,2.07,2.07,0,0,0,.68,1.6A2.68,2.68,0,0,0,93.38,199.78Z"/><path class="cls-2" d="M114.32,202.27a1.7,1.7,0,0,1-1.9-1.47,1.93,1.93,0,0,1,0-.48V183.08a1.71,1.71,0,0,1,1.44-1.93,1.93,1.93,0,0,1,.48,0h7.14a7.88,7.88,0,0,1,5.31,1.64,5.86,5.86,0,0,1,1.86,4.63,6,6,0,0,1-1.15,3.86,6.11,6.11,0,0,1-3.47,2.06,4.37,4.37,0,0,1,2.48,2.31l2.22,4.12a2,2,0,0,1,.2,1.75c-.21.53-.72.8-1.53.8a2.29,2.29,0,0,1-1.3-.34,2.74,2.74,0,0,1-.89-1l-3-5.51a2.89,2.89,0,0,0-1.26-1.35,4.35,4.35,0,0,0-1.85-.34h-2.82v6.63A1.78,1.78,0,0,1,114.32,202.27Zm1.89-11.4h4.62q4.14,0,4.16-3.38c0-2.25-1.38-3.37-4.16-3.34h-4.62Z"/><path class="cls-2" d="M139.14,202.33a9,9,0,0,1-4.23-.92,6.43,6.43,0,0,1-2.74-2.6,7.85,7.85,0,0,1-1-4,8.06,8.06,0,0,1,.93-3.94,7,7,0,0,1,2.58-2.65,7.36,7.36,0,0,1,3.75-1,6.28,6.28,0,0,1,4.87,2,7.56,7.56,0,0,1,1.79,5.33c0,.73-.47,1.1-1.42,1.1h-8.91q.42,3.88,4.45,3.88a8.42,8.42,0,0,0,1.73-.2,6.21,6.21,0,0,0,1.82-.66,1.66,1.66,0,0,1,1.26-.28,1.17,1.17,0,0,1,.75.64,1.47,1.47,0,0,1,.06,1,1.73,1.73,0,0,1-.85,1,7.85,7.85,0,0,1-2.38,1A11.61,11.61,0,0,1,139.14,202.33Zm-.53-12.55a3.6,3.6,0,0,0-2.64,1,4.5,4.5,0,0,0-1.21,2.72h7.29a4.43,4.43,0,0,0-1-2.76,3.06,3.06,0,0,0-2.44-1Z"/><path class="cls-2" d="M149.89,184.59a2.41,2.41,0,0,1-1.61-.51,1.86,1.86,0,0,1-.58-1.45,1.81,1.81,0,0,1,.58-1.45,2.35,2.35,0,0,1,1.61-.5c1.47,0,2.2.66,2.2,1.95S151.36,184.59,149.89,184.59Zm0,17.66a1.75,1.75,0,0,1-1.36-.54,2.17,2.17,0,0,1-.47-1.48V189.36c0-1.34.6-2,1.83-2s1.87.67,1.87,2v10.87a2.17,2.17,0,0,1-.47,1.48,1.8,1.8,0,0,1-1.4.54Z"/><path class="cls-2" d="M157.44,202.27c-1.23,0-1.83-.62-1.83-1.9V189.13a1.81,1.81,0,0,1,3.61,0h0v.63a4.94,4.94,0,0,1,2-1.9,6.2,6.2,0,0,1,2.84-.65c3.41,0,5.12,2,5.12,6v7.16a1.86,1.86,0,1,1-3.71.29,1.4,1.4,0,0,1,0-.29v-6.94a3.87,3.87,0,0,0-.64-2.47,2.41,2.41,0,0,0-2-.76,3.38,3.38,0,0,0-2.6,1,3.85,3.85,0,0,0-1,2.72v6.47a1.67,1.67,0,0,1-1.4,1.9A1.85,1.85,0,0,1,157.44,202.27Z"/><path class="cls-2" d="M177.7,202.33a6.26,6.26,0,0,1-2.79-.6,4.8,4.8,0,0,1-1.92-1.65,4.13,4.13,0,0,1-.7-2.31,3.68,3.68,0,0,1,.82-2.53,5,5,0,0,1,2.7-1.34,23.39,23.39,0,0,1,5-.42h1v-.62a2.93,2.93,0,0,0-.66-2.13,3,3,0,0,0-2.19-.65,8.27,8.27,0,0,0-1.85.21,9.51,9.51,0,0,0-2.09.7,1.25,1.25,0,0,1-1.16.07,1.18,1.18,0,0,1-.64-.8,1.63,1.63,0,0,1,.06-1.15,1.53,1.53,0,0,1,.9-.83,12.87,12.87,0,0,1,2.63-.8,12,12,0,0,1,2.31-.23,6.54,6.54,0,0,1,4.71,1.46,6,6,0,0,1,1.54,4.55v7.1c0,1.27-.57,1.9-1.71,1.9s-1.75-.63-1.75-1.9v-.65a4,4,0,0,1-1.6,1.91A4.77,4.77,0,0,1,177.7,202.33Zm.78-2.55a3.19,3.19,0,0,0,2.41-1,3.53,3.53,0,0,0,1-2.55v-.66h-1A11.73,11.73,0,0,0,177,196a1.54,1.54,0,0,0-1.08,1.55,2.07,2.07,0,0,0,.68,1.6A2.68,2.68,0,0,0,178.48,199.78Z"/><path class="cls-2" d="M134.62,39.23a3,3,0,0,0-2.18.92,3,3,0,0,0-5.21,2.11v3.31a.86.86,0,1,0,1.71.19.6.6,0,0,0,0-.19V42.26a1.33,1.33,0,0,1,2.65-.23.89.89,0,0,1,0,.23v3.3h0a.86.86,0,1,0,1.71.19.6.6,0,0,0,0-.19h0v-3.3A1.33,1.33,0,0,1,136,42a.89.89,0,0,1,0,.23v3.3a.85.85,0,1,0,1.7,0h0v-3.3a3,3,0,0,0-3-3"/><path class="cls-2" d="M132.42,54.72a5.22,5.22,0,0,1-5.2-5.2V48.38a.87.87,0,1,1,1.73-.19.6.6,0,0,1,0,.19v1.14a3.5,3.5,0,1,0,7,0V48.36a.87.87,0,0,1,1.73,0v1.16a5.22,5.22,0,0,1-5.21,5.2"/><path class="cls-2" d="M132.3,59.47a13.15,13.15,0,1,1,13.14-13.16v0A13.16,13.16,0,0,1,132.3,59.47Zm0-23.88A10.74,10.74,0,1,0,143,46.37v0A10.76,10.76,0,0,0,132.3,35.59Z"/><path class="cls-2" d="M118,76.72h9.15A1.83,1.83,0,0,0,129,74.91v-.06L129,66.61a1.84,1.84,0,0,0-1.83-1.83H118a1.81,1.81,0,0,0-1.82,1.82h0v8.25A1.9,1.9,0,0,0,118,76.72Zm1.78-8.25h5.49v4.59h-5.49Z"/><path class="cls-2" d="M138.15,76.65h9.14a1.83,1.83,0,0,0,1.83-1.83h0l-.05-8.24a1.89,1.89,0,0,0-.54-1.29,1.81,1.81,0,0,0-1.3-.54h-9.15a1.81,1.81,0,0,0-1.82,1.82h0l.05,8.25a1.83,1.83,0,0,0,1.84,1.82h0Zm1.78-8.25h5.48V73L140,73Z"/><path class="cls-2" d="M176.52,70.1V62.78a1.78,1.78,0,0,0-.54-1.29,1.83,1.83,0,0,0-1.29-.53l-16.5,0V53.68H160a1.78,1.78,0,0,0,1.29-.54,1.83,1.83,0,0,0,.53-1.29V44.53a1.79,1.79,0,0,0-.55-1.29,1.83,1.83,0,0,0-1.29-.53H147.51a16.32,16.32,0,0,1,.87,3.65h9.78V50h-9.81a15.45,15.45,0,0,1-.87,3.67h7l.12,26.54-43.91.15-.12-26.53h6.85a16.38,16.38,0,0,1-.9-3.65H106.9V46.56h9.59a16.36,16.36,0,0,1,.85-3.66H105.05a1.81,1.81,0,0,0-1.82,1.82h0v7.32h0a1.83,1.83,0,0,0,1.83,1.82h1.83v7.32H90.42A1.84,1.84,0,0,0,88.6,63v7.32a1.78,1.78,0,0,0,.54,1.29,1.83,1.83,0,0,0,1.29.53h1.83l.15,35.69a1.78,1.78,0,0,0,.54,1.29,1.83,1.83,0,0,0,1.29.53l76.84-.27a1.78,1.78,0,0,0,1.29-.54,1.75,1.75,0,0,0,.53-1.29l-.14-35.69h1.83a1.74,1.74,0,0,0,1.93-1.79ZM92.36,68.56V64.91H107v3.65ZM96,72.21h11l.1,12h-11Zm.14,33.86V87.85h11v18.21Zm27.44-.1V91.34h7.32L131,106Zm11,0-.05-14.63h7.32V106Zm11,0-.06-16.46a1.84,1.84,0,0,0-.54-1.29,1.76,1.76,0,0,0-1.3-.53l-22,.07a1.83,1.83,0,0,0-1.82,1.84h0L120,106h-9.15l-.08-22,43.91-.15.08,22Zm12.65-34h11l.1,12h-11Zm.14,33.86V87.65h11v18.21Zm-.15-37.52V64.68l14.63-.06v3.66Z"/></g></g></svg>