<svg xmlns="http://www.w3.org/2000/svg" viewBox="0 0 67.82 78.97"><defs><style>.cls-1{fill:#a8c0da;}</style></defs><g id="Capa_2" data-name="Capa 2"><g id="Capa_1-2" data-name="Capa 1"><path class="cls-1" d="M33.91,79l-1.76-1.38A158.78,158.78,0,0,1,18.42,65.21a2.86,2.86,0,1,1,4.07-4c4.66,4.71,9.08,8.52,11.43,10.47C43.18,64.05,62.1,46,62.1,33.91a28.19,28.19,0,0,0-56.38,0,2.86,2.86,0,1,1-5.72,0,33.91,33.91,0,0,1,67.82,0c0,7.87-5.48,17.66-16.3,29.11A159.52,159.52,0,0,1,35.67,77.59Z"/><path class="cls-1" d="M33.91,51.78A17.87,17.87,0,1,1,51.78,33.91,17.89,17.89,0,0,1,33.91,51.78Zm0-30A12.15,12.15,0,1,0,46.06,33.91,12.16,12.16,0,0,0,33.91,21.76Z"/></g></g></svg>