<svg xmlns="http://www.w3.org/2000/svg" viewBox="0 0 90.27 86.93"><defs><style>.cls-1{fill:#a8c0da;}</style></defs><g id="Capa_2" data-name="Capa 2"><g id="Capa_1-2" data-name="Capa 1"><path class="cls-1" d="M64.46,69.2H11.06A11.07,11.07,0,0,1,0,58.13V28.79A11.07,11.07,0,0,1,11.06,17.73h53.4A11.08,11.08,0,0,1,75.53,28.79V58.13A11.08,11.08,0,0,1,64.46,69.2ZM11.06,23.45a5.35,5.35,0,0,0-5.34,5.34V58.13a5.35,5.35,0,0,0,5.34,5.35h53.4a5.36,5.36,0,0,0,5.35-5.35V28.79a5.35,5.35,0,0,0-5.35-5.34Z"/><path class="cls-1" d="M72.67,38.25H15.48a2.86,2.86,0,0,1,0-5.72H72.67a2.86,2.86,0,0,1,0,5.72Z"/><path class="cls-1" d="M77.87,86.93H43.73a12.42,12.42,0,0,1-12.4-12.41,2.86,2.86,0,0,1,5.72,0,6.69,6.69,0,0,0,6.68,6.69H77.87a6.69,6.69,0,0,0,6.68-6.69V12.4a6.69,6.69,0,0,0-6.68-6.68H43.73a6.69,6.69,0,0,0-6.68,6.68,2.86,2.86,0,0,1-5.72,0A12.41,12.41,0,0,1,43.73,0H77.87a12.41,12.41,0,0,1,12.4,12.4V74.52A12.42,12.42,0,0,1,77.87,86.93Z"/><path class="cls-1" d="M72.77,13.53H48.83a2,2,0,0,1,0-4H72.77a2,2,0,0,1,0,4Z"/></g></g></svg>