<svg xmlns="http://www.w3.org/2000/svg" viewBox="0 0 649.58 103.68"><defs><style>.cls-1{fill:#fff;}.cls-2{fill:none;stroke:#fff;stroke-miterlimit:10;stroke-width:1.82px;}</style></defs><g id="Capa_2" data-name="Capa 2"><g id="Capa_1-2" data-name="Capa 1"><path class="cls-1" d="M3.74,53.91a2.5,2.5,0,0,1-.65-1.8v-37a2.26,2.26,0,0,1,.68-1.71,2.5,2.5,0,0,1,1.8-.65H27a2.4,2.4,0,0,1,1.65.53,2,2,0,0,1,.59,1.54,1.88,1.88,0,0,1-.59,1.47A2.4,2.4,0,0,1,27,16.8H7.87V31.13h18a2.34,2.34,0,0,1,1.65.53,2,2,0,0,1,.59,1.53,1.88,1.88,0,0,1-.59,1.47,2.34,2.34,0,0,1-1.65.53h-18V52.11a2.57,2.57,0,0,1-.62,1.8,2.24,2.24,0,0,1-1.74.68A2.34,2.34,0,0,1,3.74,53.91Z"/><path class="cls-1" d="M51.34,53.65a2.28,2.28,0,0,1-.67-1.71V15.09a2.25,2.25,0,0,1,.67-1.71,2.53,2.53,0,0,1,1.8-.65h22a2.39,2.39,0,0,1,1.65.53,1.91,1.91,0,0,1,.59,1.48,1.88,1.88,0,0,1-.59,1.47,2.34,2.34,0,0,1-1.65.53H55.44V31.19H74a2.34,2.34,0,0,1,1.65.53,2.13,2.13,0,0,1,0,2.94,2.34,2.34,0,0,1-1.65.53H55.44V50.28H75.19a2.43,2.43,0,0,1,1.65.51,2.16,2.16,0,0,1,0,3,2.34,2.34,0,0,1-1.65.53h-22A2.53,2.53,0,0,1,51.34,53.65Z"/><path class="cls-1" d="M100.39,53.67a2.09,2.09,0,0,1-.68-1.62V14.91a2.49,2.49,0,0,1,.65-1.79,2.64,2.64,0,0,1,3.54,0,2.49,2.49,0,0,1,.65,1.79V50.17h19a2.34,2.34,0,0,1,1.65.53,2.28,2.28,0,0,1,0,3.06,2.34,2.34,0,0,1-1.65.53H102.07A2.36,2.36,0,0,1,100.39,53.67Z"/><path class="cls-1" d="M146.93,53.91a2.5,2.5,0,0,1-.65-1.8V14.91a2.49,2.49,0,0,1,.65-1.79,2.64,2.64,0,0,1,3.54,0,2.49,2.49,0,0,1,.65,1.79v37.2a2.5,2.5,0,0,1-.65,1.8,2.64,2.64,0,0,1-3.54,0Z"/><path class="cls-1" d="M203.47,50.76a1.88,1.88,0,0,1,.59,1.47,2,2,0,0,1-.59,1.53,2.37,2.37,0,0,1-1.65.53H175.47a2.34,2.34,0,0,1-1.69-.59,1.94,1.94,0,0,1-.61-1.47,3.25,3.25,0,0,1,.64-1.83L197.4,16.8H175.47a2.43,2.43,0,0,1-1.66-.53,1.87,1.87,0,0,1-.58-1.47,2,2,0,0,1,.58-1.54,2.43,2.43,0,0,1,1.66-.53h25.7a2.37,2.37,0,0,1,1.68.59,2,2,0,0,1,.62,1.48,3.2,3.2,0,0,1-.65,1.77L179.18,50.23h22.64A2.37,2.37,0,0,1,203.47,50.76Z"/><path class="cls-1" d="M256.26,53.65a2.25,2.25,0,0,1-.68-1.71V15.09a2.22,2.22,0,0,1,.68-1.71,2.49,2.49,0,0,1,1.79-.65h11.5q10,0,15.42,5.4t5.45,15.35q0,10-5.48,15.39t-15.39,5.42h-11.5A2.49,2.49,0,0,1,256.26,53.65Zm13-3.48q16.15,0,16.16-16.69T269.25,16.86h-8.84V50.17Z"/><path class="cls-1" d="M314.53,53.91a2.5,2.5,0,0,1-.65-1.8V14.91a2.49,2.49,0,0,1,.65-1.79,2.34,2.34,0,0,1,1.77-.68,2.37,2.37,0,0,1,1.77.68,2.49,2.49,0,0,1,.65,1.79v37.2a2.5,2.5,0,0,1-.65,1.8,2.37,2.37,0,0,1-1.77.68A2.34,2.34,0,0,1,314.53,53.91Zm1.83-44.42a1.34,1.34,0,0,1-.92-.35,1.11,1.11,0,0,1-.38-.83,1.31,1.31,0,0,1,.41-.94L321.31,1a2.8,2.8,0,0,1,2.06-1,2.07,2.07,0,0,1,1.45.59A1.88,1.88,0,0,1,325.44,2,2.68,2.68,0,0,1,324,4.19l-6.9,5.07A1.61,1.61,0,0,1,316.36,9.49Z"/><path class="cls-1" d="M379.73,52.53a1.88,1.88,0,0,1-.68,1.47,2.39,2.39,0,0,1-1.62.59,2.08,2.08,0,0,1-2.06-1.42l-4.19-9.55H349l-4.25,9.55a2.08,2.08,0,0,1-2.06,1.42A2.44,2.44,0,0,1,341,54a1.92,1.92,0,0,1-.71-1.5,2.09,2.09,0,0,1,.24-.95L357.39,14a2.54,2.54,0,0,1,1.06-1.24,3,3,0,0,1,1.53-.41,3,3,0,0,1,1.59.44A2.76,2.76,0,0,1,362.63,14l16.86,37.49A2.21,2.21,0,0,1,379.73,52.53ZM369.41,39.61,360,18.45l-9.31,21.16Z"/><path class="cls-1" d="M431.9,53.91a2.5,2.5,0,0,1-.65-1.8v-37a2.26,2.26,0,0,1,.68-1.71,2.5,2.5,0,0,1,1.8-.65h14q6.54,0,10.17,3.19t3.62,9q0,5.83-3.65,9.07T447.7,37.26H436.08V52.11a2.49,2.49,0,0,1-.64,1.8,2.37,2.37,0,0,1-1.77.68A2.34,2.34,0,0,1,431.9,53.91Zm15.33-20.66q9.48,0,9.49-8.31t-9.49-8.2H436.08V33.25Z"/><path class="cls-1" d="M515.61,52.53a1.88,1.88,0,0,1-.68,1.47,2.39,2.39,0,0,1-1.62.59,2.08,2.08,0,0,1-2.06-1.42l-4.19-9.55H484.84l-4.25,9.55a2.08,2.08,0,0,1-2.06,1.42,2.44,2.44,0,0,1-1.65-.62,1.92,1.92,0,0,1-.71-1.5,2.09,2.09,0,0,1,.24-.95L493.27,14a2.54,2.54,0,0,1,1.06-1.24,3,3,0,0,1,1.53-.41,3,3,0,0,1,1.59.44A2.76,2.76,0,0,1,498.51,14l16.86,37.49A2.21,2.21,0,0,1,515.61,52.53ZM505.29,39.61l-9.37-21.16-9.31,21.16Z"/><path class="cls-1" d="M537.83,53.91a2.5,2.5,0,0,1-.65-1.8v-37a2.26,2.26,0,0,1,.68-1.71,2.5,2.5,0,0,1,1.8-.65h14q6.54,0,10.17,3.19t3.63,9q0,5.83-3.66,9.07t-10.14,3.25H542V52.11a2.5,2.5,0,0,1-.65,1.8,2.64,2.64,0,0,1-3.54,0Zm15.33-20.66q9.5,0,9.49-8.31t-9.49-8.2H542V33.25Z"/><path class="cls-1" d="M621.54,52.53a1.85,1.85,0,0,1-.68,1.47,2.39,2.39,0,0,1-1.62.59,2.08,2.08,0,0,1-2.06-1.42L613,43.62H590.77l-4.24,9.55a2.1,2.1,0,0,1-2.07,1.42,2.44,2.44,0,0,1-1.65-.62,1.92,1.92,0,0,1-.71-1.5,2.09,2.09,0,0,1,.24-.95L599.2,14a2.6,2.6,0,0,1,1.06-1.24,3.09,3.09,0,0,1,3.13,0A2.83,2.83,0,0,1,604.45,14l16.86,37.49A2.33,2.33,0,0,1,621.54,52.53ZM611.23,39.61l-9.38-21.16-9.31,21.16ZM601.91,9.49a1.31,1.31,0,0,1-.91-.35,1.08,1.08,0,0,1-.38-.83,1.27,1.27,0,0,1,.41-.94L606.86,1a2.8,2.8,0,0,1,2.07-1,2,2,0,0,1,1.44.59A1.88,1.88,0,0,1,611,2a2.66,2.66,0,0,1-1.41,2.19l-6.9,5.07A1.64,1.64,0,0,1,601.91,9.49Z"/><path class="cls-1" d="M642.41,53.67a3.14,3.14,0,0,1-.94-2.38,3.28,3.28,0,0,1,.94-2.42,3.19,3.19,0,0,1,2.36-.94,3,3,0,0,1,2.27.94,3.34,3.34,0,0,1,.91,2.42,3.2,3.2,0,0,1-.91,2.38,3.09,3.09,0,0,1-2.27.92A3.25,3.25,0,0,1,642.41,53.67Zm1.3-10.37a1.87,1.87,0,0,1-.47-1.21l-1.42-26.7a2.53,2.53,0,0,1,.71-2.16,3.4,3.4,0,0,1,4.36,0,2.53,2.53,0,0,1,.71,2.16l-1.42,26.7a1.88,1.88,0,0,1-.47,1.24,1.37,1.37,0,0,1-1,.41A1.33,1.33,0,0,1,643.71,43.3Z"/><path class="cls-1" d="M195.82,101.22a1.16,1.16,0,0,1,.36.9,1.22,1.22,0,0,1-.34.94,1.43,1.43,0,0,1-1,.33H182.87a1.43,1.43,0,0,1-1-.33,1.26,1.26,0,0,1-.34-.94,1.16,1.16,0,0,1,.36-.9,1.49,1.49,0,0,1,1-.32h4.48V81.56l-3.94,2.57a1.06,1.06,0,0,1-.57.18,1.14,1.14,0,0,1-.89-.47,1.61,1.61,0,0,1-.38-1,1.16,1.16,0,0,1,.58-1.09l5.48-3.57a2.33,2.33,0,0,1,1.27-.39,1.39,1.39,0,0,1,1,.39,1.54,1.54,0,0,1,.39,1.12V100.9h4.51A1.49,1.49,0,0,1,195.82,101.22Z"/><path class="cls-1" d="M224.88,80.88q2.51,3.21,2.5,9.16a20.76,20.76,0,0,1-1.15,7.32,10,10,0,0,1-3.36,4.69,8.57,8.57,0,0,1-5.23,1.63,11.18,11.18,0,0,1-4.09-.8,10.57,10.57,0,0,1-3.48-2.16,1.69,1.69,0,0,1-.61-1.23,1.4,1.4,0,0,1,.28-.9.87.87,0,0,1,.69-.36,1.75,1.75,0,0,1,1,.4,9.78,9.78,0,0,0,6.09,2.56,5.63,5.63,0,0,0,5-2.93q1.8-2.91,1.8-8.18v-.47a6.61,6.61,0,0,1-2.69,3.17,7.8,7.8,0,0,1-4.2,1.16,8.29,8.29,0,0,1-4.11-1,7.29,7.29,0,0,1-2.82-2.85,8.69,8.69,0,0,1-1-4.22,8.46,8.46,0,0,1,1-4.22,7.48,7.48,0,0,1,2.92-2.93,9.37,9.37,0,0,1,11.35,2.17Zm-2.89,9a5.65,5.65,0,0,0-4.09-9.72A5.14,5.14,0,0,0,214,81.71a5.68,5.68,0,0,0-1.48,4.11A5.58,5.58,0,0,0,214,89.91a5.26,5.26,0,0,0,4,1.54A5.53,5.53,0,0,0,222,89.88Z"/><path class="cls-1" d="M260.26,103a1.36,1.36,0,0,1-.41-1V79.4a1.39,1.39,0,0,1,.41-1.05,1.54,1.54,0,0,1,1.1-.39h7q6.09,0,9.43,3.3t3.33,9.39q0,6.1-3.35,9.42t-9.41,3.32h-7A1.5,1.5,0,0,1,260.26,103Zm8-2.13q9.87,0,9.88-10.21t-9.88-10.17h-5.41v20.38Z"/><path class="cls-1" d="M295.94,103a1.36,1.36,0,0,1-.42-1V79.4a1.39,1.39,0,0,1,.42-1.05A1.52,1.52,0,0,1,297,78h13.49a1.49,1.49,0,0,1,1,.32,1.32,1.32,0,0,1,0,1.81,1.49,1.49,0,0,1-1,.32H298.44v8.84h11.37a1.51,1.51,0,0,1,1,.32,1.32,1.32,0,0,1,0,1.81,1.51,1.51,0,0,1-1,.32H298.44v9.23h12.09a1.54,1.54,0,0,1,1,.31,1.15,1.15,0,0,1,.36.92,1.13,1.13,0,0,1-.36.9,1.45,1.45,0,0,1-1,.33H297A1.49,1.49,0,0,1,295.94,103Z"/><path class="cls-1" d="M340.79,103.31a1.1,1.1,0,0,1-.47-1c0-.79.44-1.2,1.33-1.23l1.09-.07a3.78,3.78,0,0,0,2.74-1.13,5,5,0,0,0,.9-3.3V79.29a1.46,1.46,0,0,1,.43-1.1,1.49,1.49,0,0,1,1.05-.41,1.43,1.43,0,0,1,1.08.41,1.56,1.56,0,0,1,.4,1.1V96.64a7.26,7.26,0,0,1-1.52,5,6.4,6.4,0,0,1-4.58,1.86l-1.08.07A2.12,2.12,0,0,1,340.79,103.31Z"/><path class="cls-1" d="M367,101.08q-2.56-2.6-2.56-7.65V79.29a1.52,1.52,0,0,1,.4-1.1,1.59,1.59,0,0,1,2.13,0,1.56,1.56,0,0,1,.39,1.1V93.68a7.74,7.74,0,0,0,1.82,5.59,7.11,7.11,0,0,0,5.36,1.88,7,7,0,0,0,5.34-1.88,7.78,7.78,0,0,0,1.8-5.59V79.29a1.49,1.49,0,0,1,.42-1.1,1.45,1.45,0,0,1,1.06-.41,1.43,1.43,0,0,1,1.08.41,1.52,1.52,0,0,1,.4,1.1V93.43c0,3.34-.86,5.89-2.58,7.63s-4.23,2.62-7.52,2.62S368.72,102.81,367,101.08Z"/><path class="cls-1" d="M419.78,78.19a1.64,1.64,0,0,1,.36,1.1v22.76a1.52,1.52,0,0,1-.38,1.1,1.34,1.34,0,0,1-1.06.42,1.51,1.51,0,0,1-1.19-.62l-15-20v19.12a1.56,1.56,0,0,1-.38,1.1,1.31,1.31,0,0,1-1,.42,1.26,1.26,0,0,1-1-.42,1.6,1.6,0,0,1-.36-1.1V79.29a1.6,1.6,0,0,1,.38-1.1,1.41,1.41,0,0,1,1.07-.41,1.51,1.51,0,0,1,1.22.61l14.94,20V79.29a1.59,1.59,0,0,1,.37-1.1,1.36,1.36,0,0,1,1-.41A1.27,1.27,0,0,1,419.78,78.19Z"/><path class="cls-1" d="M435.83,103.15a1.52,1.52,0,0,1-.39-1.1V79.29a1.56,1.56,0,0,1,.39-1.1,1.64,1.64,0,0,1,2.17,0,1.56,1.56,0,0,1,.4,1.1v22.76a1.53,1.53,0,0,1-.4,1.1,1.61,1.61,0,0,1-2.17,0Z"/><path class="cls-1" d="M458.18,102.09a10.45,10.45,0,0,1-4-4.51,15.69,15.69,0,0,1-1.41-6.89,16,16,0,0,1,1.39-6.94,10.18,10.18,0,0,1,4-4.51,13,13,0,0,1,12.38,0,10.18,10.18,0,0,1,4,4.51,17.73,17.73,0,0,1,0,13.81,10.38,10.38,0,0,1-4,4.53,12.69,12.69,0,0,1-12.3,0Zm12.44-3.66q2.26-2.73,2.26-7.78c0-3.36-.75-6-2.24-7.75a8.66,8.66,0,0,0-12.6,0q-2.27,2.72-2.26,7.73c0,3.35.75,5.93,2.26,7.76a8.61,8.61,0,0,0,12.58,0Z"/><line class="cls-2" x1="495.75" y1="93.24" x2="649.58" y2="93.24"/><line class="cls-2" y1="93.24" x2="153.83" y2="93.24"/></g></g></svg>