<svg xmlns="http://www.w3.org/2000/svg" viewBox="0 0 84.8 12.45"><defs><style>.cls-1{fill:#8db9ec;}.cls-2{fill:#fff;}</style></defs><g id="Capa_2" data-name="Capa 2"><g id="Capa_3" data-name="Capa 3"><path class="cls-1" d="M78.57,12.45H6.23A6.23,6.23,0,0,1,0,6.23H0A6.23,6.23,0,0,1,6.23,0H78.57A6.23,6.23,0,0,1,84.8,6.23h0A6.23,6.23,0,0,1,78.57,12.45Z"/><path class="cls-2" d="M9.81,10.29a.78.78,0,0,1-.58-.21A.84.84,0,0,1,9,9.49V4a.7.7,0,0,1,.78-.79h2.42a2.55,2.55,0,0,1,1.81.6,2.14,2.14,0,0,1,.64,1.64,2.15,2.15,0,0,1-.64,1.65,2.55,2.55,0,0,1-1.81.6H10.58V9.49a.84.84,0,0,1-.2.59A.74.74,0,0,1,9.81,10.29Zm.77-3.81H12c.82,0,1.22-.35,1.22-1.06s-.4-1-1.22-1h-1.4Z"/><path class="cls-2" d="M16.42,10.29a.76.76,0,0,1-.58-.21.84.84,0,0,1-.2-.59V4a.7.7,0,0,1,.79-.79h2.41a2.65,2.65,0,0,1,1.82.57,2,2,0,0,1,.63,1.58,2.07,2.07,0,0,1-.4,1.31,2,2,0,0,1-1.15.71,1.53,1.53,0,0,1,.87.77l.61,1.14a.78.78,0,0,1,.08.7c-.08.22-.29.33-.62.33a1,1,0,0,1-.54-.14,1.2,1.2,0,0,1-.36-.43L18.82,8a.79.79,0,0,0-.36-.38,1.21,1.21,0,0,0-.52-.1h-.76v2a.84.84,0,0,1-.19.59A.74.74,0,0,1,16.42,10.29Zm.76-3.92h1.39c.83,0,1.24-.33,1.24-1s-.41-1-1.24-1H17.18Z"/><path class="cls-2" d="M25.77,10.31A3.49,3.49,0,0,1,24,9.85a3.12,3.12,0,0,1-1.21-1.26,4,4,0,0,1-.43-1.9,4,4,0,0,1,.43-1.91A3.12,3.12,0,0,1,24,3.52a3.91,3.91,0,0,1,3.64,0,3.08,3.08,0,0,1,1.22,1.26,4,4,0,0,1,.43,1.9,4,4,0,0,1-.43,1.91,3.08,3.08,0,0,1-1.22,1.26A3.47,3.47,0,0,1,25.77,10.31Zm0-1.32a1.66,1.66,0,0,0,1.37-.61,2.62,2.62,0,0,0,.49-1.69A2.61,2.61,0,0,0,27.14,5a1.85,1.85,0,0,0-2.73,0,2.61,2.61,0,0,0-.49,1.7,2.62,2.62,0,0,0,.49,1.69A1.64,1.64,0,0,0,25.77,9Z"/><path class="cls-2" d="M31.15,10.29a.72.72,0,0,1-.52-.19.74.74,0,0,1-.18-.53V3.81a.73.73,0,0,1,.19-.53.77.77,0,0,1,.54-.19.8.8,0,0,1,.47.12A1.1,1.1,0,0,1,32,3.6l2.13,3.89L36.23,3.6a1.1,1.1,0,0,1,.33-.39A.78.78,0,0,1,37,3.09a.7.7,0,0,1,.52.19.69.69,0,0,1,.19.53V9.57a.71.71,0,1,1-1.41,0V5.92L34.69,8.85a1,1,0,0,1-.25.29.63.63,0,0,1-.35.09.64.64,0,0,1-.36-.09.8.8,0,0,1-.25-.29L31.85,6V9.57A.63.63,0,0,1,31.15,10.29Z"/><path class="cls-2" d="M42.4,10.31a3.46,3.46,0,0,1-1.81-.46,3.15,3.15,0,0,1-1.22-1.26,4.07,4.07,0,0,1-.43-1.9,4.11,4.11,0,0,1,.43-1.91,3.19,3.19,0,0,1,1.21-1.26,3.93,3.93,0,0,1,3.65,0,3.12,3.12,0,0,1,1.21,1.26,4,4,0,0,1,.44,1.9,4,4,0,0,1-.44,1.91,3.12,3.12,0,0,1-1.21,1.26A3.5,3.5,0,0,1,42.4,10.31ZM42.4,9a1.65,1.65,0,0,0,1.37-.61,2.62,2.62,0,0,0,.49-1.69A2.67,2.67,0,0,0,43.78,5a1.69,1.69,0,0,0-1.38-.6,1.64,1.64,0,0,0-1.35.6,2.61,2.61,0,0,0-.5,1.7,2.62,2.62,0,0,0,.5,1.69A1.62,1.62,0,0,0,42.4,9Z"/><path class="cls-2" d="M49.58,10.31a6.19,6.19,0,0,1-1.28-.14,4.06,4.06,0,0,1-1.1-.41.65.65,0,0,1-.35-.4.72.72,0,0,1,0-.5.57.57,0,0,1,.85-.28,3.08,3.08,0,0,0,.88.33,4.07,4.07,0,0,0,1,.11,1.83,1.83,0,0,0,1-.22.69.69,0,0,0,.31-.56.54.54,0,0,0-.22-.46,2.09,2.09,0,0,0-.77-.29l-1.12-.24C47.56,7,46.93,6.34,46.93,5.3a2,2,0,0,1,.36-1.17,2.4,2.4,0,0,1,1-.78,3.81,3.81,0,0,1,1.49-.28,4.46,4.46,0,0,1,1.09.14,3.2,3.2,0,0,1,.94.39.62.62,0,0,1,.31.39.72.72,0,0,1,0,.46.57.57,0,0,1-.32.31.7.7,0,0,1-.55-.07,2.44,2.44,0,0,0-.7-.25,3.13,3.13,0,0,0-.75-.08,1.65,1.65,0,0,0-1,.24.74.74,0,0,0-.35.63.58.58,0,0,0,.21.47,1.64,1.64,0,0,0,.73.29l1.12.24c1.29.28,1.93.91,1.93,1.89a2,2,0,0,1-.35,1.15,2.28,2.28,0,0,1-1,.76A3.67,3.67,0,0,1,49.58,10.31Z"/><path class="cls-2" d="M54.16,10.29a.72.72,0,0,1-.52-.19.78.78,0,0,1-.17-.53V3.81a.72.72,0,0,1,.18-.53.77.77,0,0,1,.54-.19.8.8,0,0,1,.47.12A1.1,1.1,0,0,1,55,3.6l2.13,3.89L59.25,3.6a1.08,1.08,0,0,1,.32-.39A.81.81,0,0,1,60,3.09a.7.7,0,0,1,.52.19.69.69,0,0,1,.19.53V9.57a.7.7,0,1,1-1.4,0V5.92L57.7,8.85a1,1,0,0,1-.25.29.63.63,0,0,1-.35.09.64.64,0,0,1-.36-.09.91.91,0,0,1-.25-.29L54.86,6V9.57A.63.63,0,0,1,54.16,10.29Z"/><path class="cls-2" d="M62.94,10.29a.75.75,0,0,1-.58-.21.84.84,0,0,1-.2-.59V3.89a.7.7,0,0,1,.78-.8c.51,0,.76.27.76.8v5.6C63.7,10,63.45,10.29,62.94,10.29Z"/><path class="cls-2" d="M65.9,10.2a.79.79,0,0,1-.59-.21.8.8,0,0,1-.19-.58V4a.8.8,0,0,1,.19-.58.78.78,0,0,1,.58-.21.69.69,0,0,1,.77.79V8.89h2.66a.58.58,0,0,1,.67.65.59.59,0,0,1-.67.66Z"/><path class="cls-2" d="M71.62,10.2a.71.71,0,0,1-.8-.81V4a.71.71,0,0,1,.8-.81h3.47a.53.53,0,0,1,.61.6.54.54,0,0,1-.61.61h-2.8V6h2.58a.54.54,0,0,1,.61.61.53.53,0,0,1-.61.6H72.29V9h2.8a.53.53,0,0,1,.61.6.54.54,0,0,1-.61.61Z"/></g></g></svg>