<svg xmlns="http://www.w3.org/2000/svg" viewBox="0 0 501.2 113.53"><defs><style>.cls-1{fill:#fff;}</style></defs><g id="Capa_2" data-name="Capa 2"><g id="Capa_1-2" data-name="Capa 1"><path class="cls-1" d="M484.51,113.13l-6.38-.57c-9.78-.8-19.57-1.68-29.44-2.29l-29.89-1.69c-5-.26-10.11-.6-15.23-.79l-15.49-.63c-10.43-.39-21.06-.93-32-1.3l-23.59-.73c-8-.21-16.23-.46-24.42-.49-16.37-.11-32.74-.37-48-.26,72.42.26,148.58,2.55,217.86,8.82-7.05,0-15.45-.16-25.2-.82-23.49-1.37-46.67-2.88-69.69-3.65l0-.84c-65.42-1.66-126.56-3.74-192-1.6,2.33.06.95.26.47.41h0c-.43.14-.17.2,3.91.15-4.08.05-4.34,0-3.91-.15,64.39-1.25,124.65-.69,188.89,1.93C280.65,104.82,184.27,106,82,110.54l-17.43.81q-26.2.41-52.32,2.18c2.14-.67-1.18-1.25-.68-1.89s4.83-1.4,22.29-2.23l0-.84c-17.48.48-29.54.35-32.9-.37S3,106,20.44,104.49C59.71,101.14,112.2,99.6,160.28,98c17.5-.48,35-1,52.49-1.18s35-.23,52.5,0c48.12.71,100.63,1.65,148.66,4.66,8.74.56,20.76,1.07,31.69,1.57l7.93.39,7.09.5c4.36.33,7.91.66,10.08,1,6.25.74,6.47,1.21,5.47,1.64L454.7,105l-21.45-1.16-21.39-1.14c-3.55-.21-7.11-.37-10.66-.49l-10.63-.41-26.06-1.12c-8.68-.35-17.37-.55-26.06-.83s-17.37-.59-26.06-.77l-26.07-.54,25.65.62c8.61.18,17.26.54,25.95.78l26.22.8,26.43,1.06,10.59.45c3.54.14,7.07.3,10.6.53L432.94,104l21.17,1.25,21.16,1.61c-1.06.36-2.09.74-.39,1.28L488,109c17.37,2.26,12.87,3.44,4.1,3.9Z"/><path class="cls-1" d="M22.64,25.36a4,4,0,0,0-1.95,3.17c0,1.16.86,1.75,2.6,1.75a8.85,8.85,0,0,0,2.91-.66h.06c.19,0,.29.41.29,1.22a2.64,2.64,0,0,1-.23,1.45Q20.22,36.61,16,36.62c-2.81,0-4.84-.79-6.11-2.37A9.65,9.65,0,0,1,8,28.05q0-3.81,4.2-8.11A43.45,43.45,0,0,1,23.53,12,75.09,75.09,0,0,1,41.16,6,107.85,107.85,0,0,1,64.8,3.61q13.13,0,22,5.13t8.83,11.67q0,6.56-4.59,13.3a47.35,47.35,0,0,1-11.5,11.76,65.52,65.52,0,0,1-15.32,8.21,43,43,0,0,1-15,3.2,11.81,11.81,0,0,1-10.31-5.33q-9,14.16-12.21,19.34T21.19,79.6Q19,83.13,17.75,85.14c-.81,1.34-1.23,2-1.27,2.07a3.62,3.62,0,0,1-2.67,1.37l-2.9.53L9.49,89h-1C6.15,89,5,88.26,5,86.8q0-2.79,11.67-21t22-33Q49,18,50.73,16.18A6.85,6.85,0,0,1,53.78,14a20.62,20.62,0,0,1,4.29-.32h3c.51,0,.76.4.76,1.21a3.42,3.42,0,0,1-.29,1.69q-5.22,7.29-18.84,28.79a2.15,2.15,0,0,0,1.57,1.19,10.91,10.91,0,0,0,2.34.24H48.3a30.86,30.86,0,0,0,11.79-2.64,49.69,49.69,0,0,0,11.14-6.31,47.24,47.24,0,0,0,8-7.67c2.16-2.67,3.23-5,3.23-6.85a8,8,0,0,0-1.77-5.09,12.07,12.07,0,0,0-4.86-3.56,37.9,37.9,0,0,0-14.67-2.54q-8.61,0-20.79,4.47T22.64,25.36Z"/><path class="cls-1" d="M93.06,56.64q14-15.87,23.82-15.88a5.7,5.7,0,0,1,4,1.45A4.9,4.9,0,0,1,122.45,46q0,2.31-3.29,7.73t-6.07,9.15a4.22,4.22,0,0,1-3.35,1.9,3.43,3.43,0,0,1-2.9-1.36,5.16,5.16,0,0,1-1-3.2q0-4.1,4.39-9.25l-.12-.11q-2,.16-9.69,7.7T87.23,72Q81.8,78,75.47,86.5c-1.23,1.7-2.27,2.55-3.11,2.55a10.15,10.15,0,0,1-3.38-.8,13.3,13.3,0,0,1-2.55-1.15A1.44,1.44,0,0,1,66,85.91,4.87,4.87,0,0,1,66.46,84a26.11,26.11,0,0,1,1.75-3.12q1.28-2,3.85-6.51t8-13.63q5.44-9.12,6.51-11A49.53,49.53,0,0,1,90.28,44q2.67-3.37,9-3.38c1,0,1.43.6,1.43,1.78q0,2.79-5.16,10.49Z"/><path class="cls-1" d="M152.64,43.79a5.67,5.67,0,0,1,3.64,1.59,6.08,6.08,0,0,1,1.87,4.89,22.48,22.48,0,0,1-2.31,8.53,55.15,55.15,0,0,1-6.34,10.67,89.23,89.23,0,0,1-8.86,10.19,46.2,46.2,0,0,1-10.43,7.82,21.54,21.54,0,0,1-10.16,3,9.66,9.66,0,0,1-7.31-2.87c-1.84-1.92-2.76-4.58-2.76-8a30.54,30.54,0,0,1,2.52-11.35,41.26,41.26,0,0,1,6.49-11,63.72,63.72,0,0,1,8.59-8.56Q137.24,41,144.52,41a6.81,6.81,0,0,1,4.92,1.6,1.41,1.41,0,0,1,.59.95v.35A20.8,20.8,0,0,1,152.64,43.79Zm-6,7.88h-.42q-2.07,0-2.07-3a32.08,32.08,0,0,0-9.07,5A44.08,44.08,0,0,0,126.63,62q-7.59,9.72-7.7,16.42c0,2.21.81,3.31,2.43,3.31s4-1.06,7.23-3.2a42.52,42.52,0,0,0,9.5-9.12,72.54,72.54,0,0,0,7.06-10.28c1.56-2.9,2.34-4.88,2.34-5.92S147.21,51.67,146.66,51.67Z"/><path class="cls-1" d="M153.21,89.29l-2.91-.12h-1.06a4.15,4.15,0,0,1-1.28-.71c-.45-.36-.8-.61-1-.77a1,1,0,0,1-.36-.86,8.55,8.55,0,0,1,.48-2.16Q158.6,59.25,169.38,44a7.38,7.38,0,0,1,3.82-2.52,16.62,16.62,0,0,1,5.13-.86c1,0,1.48.78,1.48,2.32a4.83,4.83,0,0,1-.47,1.74A21.57,21.57,0,0,1,177,48.29C175.7,50,174.2,51.84,172.46,54s-2.72,3.35-3,3.67a81.75,81.75,0,0,1,14.67-12.53Q190.71,41,193.65,41a5.84,5.84,0,0,1,4.5,1.69,5.26,5.26,0,0,1,1.57,3.61,15.77,15.77,0,0,1-.27,3.2,10.64,10.64,0,0,1-1,2.67l-1.21,2.37a19.86,19.86,0,0,1-1.69,2.55l-1.63,2.16c-.29.39-.91,1.15-1.84,2.25s-1.43,1.72-1.51,1.84q1.66-1.67,4.62-4.92t5-5.45q2-2.19,5.13-4.95a46.26,46.26,0,0,1,5.74-4.47,24.1,24.1,0,0,1,13-4,5.37,5.37,0,0,1,3.79,1.42,4.48,4.48,0,0,1,1.54,3.41q0,2-4.8,9.48t-9.57,15q-4.77,7.55-4.77,9.51c0,1.81.34,2.89,1,3.23a4.56,4.56,0,0,0,2.43.38,9.69,9.69,0,0,0,4-1.84,38,38,0,0,0,4.59-3.55c2.17-2,4.19-3.89,6-5.75a2,2,0,0,1,1.31-.53c.75,0,1.2.57,1.36,1.72a25.6,25.6,0,0,1,.24,3.55,6.22,6.22,0,0,1-.36,2.55q-1.71,3.31-7.58,8.12T212,91.07a5.38,5.38,0,0,1-.95-.06c-4.06-.4-6.88-1.51-8.44-3.35a9.8,9.8,0,0,1-2.34-6.55,22.1,22.1,0,0,1,2.58-9.18,67.64,67.64,0,0,1,5.66-9.78q3.07-4.38,5.65-7.91a25.6,25.6,0,0,0,2.58-3.82c0-.2-.16-.3-.47-.3q-1.84,0-8.18,5.93A220.71,220.71,0,0,0,189.41,75.6q-2.07,2.49-9.84,12.62a3.28,3.28,0,0,1-2.81,1.19,11.93,11.93,0,0,1-4-.74c-1.38-.5-2.07-1.14-2.07-1.93q0-.58,9.42-16.62t9.42-17.48c0-1-.59-1.45-1.75-1.45s-3.57,1.74-7.2,5.22q-15,14.32-23.22,28.49a25.91,25.91,0,0,1-2.08,2.61C154.25,88.7,153.56,89.29,153.21,89.29Z"/><path class="cls-1" d="M263.62,43.79a5.67,5.67,0,0,1,3.64,1.59,6.08,6.08,0,0,1,1.87,4.89,22.48,22.48,0,0,1-2.31,8.53,55.15,55.15,0,0,1-6.34,10.67,89.23,89.23,0,0,1-8.86,10.19,46.37,46.37,0,0,1-10.42,7.82,21.57,21.57,0,0,1-10.17,3,9.66,9.66,0,0,1-7.31-2.87c-1.84-1.92-2.76-4.58-2.76-8a30.54,30.54,0,0,1,2.52-11.35,41.26,41.26,0,0,1,6.49-11,63.72,63.72,0,0,1,8.59-8.56Q248.22,41,255.5,41a6.79,6.79,0,0,1,4.92,1.6,1.41,1.41,0,0,1,.59.95v.35A20.8,20.8,0,0,1,263.62,43.79Zm-6,7.88h-.42q-2.07,0-2.07-3a32.08,32.08,0,0,0-9.07,5A44.08,44.08,0,0,0,237.61,62q-7.59,9.72-7.7,16.42c0,2.21.81,3.31,2.43,3.31s4-1.06,7.23-3.2a42.76,42.76,0,0,0,9.51-9.12,72.35,72.35,0,0,0,7-10.28c1.56-2.9,2.34-4.88,2.34-5.92S258.19,51.67,257.64,51.67Z"/><path class="cls-1" d="M276.69,72.64l-.77,1.6c0,1.15,1.61,2.24,4.83,3.29a34.31,34.31,0,0,0,10.6,1.57,52.89,52.89,0,0,0,12.71-1.72,62,62,0,0,0,12.06-4.21A43.31,43.31,0,0,0,324.59,68q3.35-2.73,3.35-4.74,0-2.55-5.93-4.74a153.66,153.66,0,0,0-17.21-4.83Q293.52,51,288.27,47T283,37.18a17.6,17.6,0,0,1,4.15-11A40.24,40.24,0,0,1,298,16.77a97.81,97.81,0,0,1,14.55-7.29q16.29-6.57,30.21-6.58a42,42,0,0,1,9.42,1Q360,5.7,360,8.71a10.62,10.62,0,0,1-.53,4.12,7,7,0,0,1-.86,1.45,5.09,5.09,0,0,1-.83.71l-.74.53q-2.61,2.19-14.28,2.73a20.74,20.74,0,0,0-4.38.41,1.19,1.19,0,0,1-.62.24c-.18,0-.39-.16-.63-.47a2.67,2.67,0,0,1-.35-1.54c0-.71.77-2,2.31-3.91a56.13,56.13,0,0,0-15.44,3.31,77.89,77.89,0,0,0-14.24,6.55A71.48,71.48,0,0,0,299.32,30c-2.68,2.35-4,4-4,5a3.41,3.41,0,0,0,.89,2.4Q298.67,40,310,43q11.73,3,15.64,4.85a56.84,56.84,0,0,1,6.49,3.5,20.1,20.1,0,0,1,4.11,3.38q3.61,4.14,3.62,8.41a15.1,15.1,0,0,1-2.28,8,27.13,27.13,0,0,1-6.87,7.23,53.05,53.05,0,0,1-10.82,6.22q-13.62,6.11-32.47,6.1-13.74,0-17.53-7.29a7.72,7.72,0,0,1-1-3.82,7,7,0,0,1,.92-3.58A6.74,6.74,0,0,1,272,73.53a8.55,8.55,0,0,1,3.61-1.6C276.33,71.93,276.69,72.17,276.69,72.64Z"/><path class="cls-1" d="M341.66,89.29l-2.9-.12h-1.07a4.12,4.12,0,0,1-1.27-.71c-.46-.36-.8-.61-1-.77a1,1,0,0,1-.36-.86,8.55,8.55,0,0,1,.48-2.16Q347,59.25,357.83,44a7.37,7.37,0,0,1,3.83-2.52,16.51,16.51,0,0,1,5.12-.86c1,0,1.48.78,1.48,2.32a4.83,4.83,0,0,1-.47,1.74,21.57,21.57,0,0,1-2.37,3.59c-1.27,1.66-2.77,3.55-4.5,5.69s-2.73,3.35-3,3.67a81.75,81.75,0,0,1,14.67-12.53Q379.16,41,382.1,41a5.84,5.84,0,0,1,4.5,1.69,5.21,5.21,0,0,1,1.57,3.61,15.77,15.77,0,0,1-.27,3.2,10.59,10.59,0,0,1-1,2.67c-.48.93-.88,1.72-1.22,2.37A19.86,19.86,0,0,1,384,57.09l-1.63,2.16c-.29.39-.91,1.15-1.83,2.25s-1.44,1.72-1.51,1.84q1.65-1.67,4.62-4.92t5-5.45c1.37-1.46,3.07-3.11,5.13-4.95a45.57,45.57,0,0,1,5.75-4.47,24.06,24.06,0,0,1,13-4,5.36,5.36,0,0,1,3.79,1.42,4.48,4.48,0,0,1,1.54,3.41q0,2-4.8,9.48t-9.56,15q-4.77,7.55-4.77,9.51c0,1.81.33,2.89,1,3.23a4.58,4.58,0,0,0,2.43.38,9.69,9.69,0,0,0,4-1.84,38,38,0,0,0,4.59-3.55c2.18-2,4.19-3.89,6.05-5.75a1.92,1.92,0,0,1,1.3-.53c.75,0,1.2.57,1.36,1.72a25.6,25.6,0,0,1,.24,3.55,6.22,6.22,0,0,1-.36,2.55q-1.71,3.31-7.58,8.12t-11.26,4.8a5.18,5.18,0,0,1-.94-.06c-4.07-.4-6.89-1.51-8.45-3.35a9.8,9.8,0,0,1-2.34-6.55,22.1,22.1,0,0,1,2.58-9.18A67.64,67.64,0,0,1,397,62.15q3.08-4.38,5.66-7.91a26,26,0,0,0,2.57-3.82c0-.2-.15-.3-.47-.3q-1.83,0-8.18,5.93A222.17,222.17,0,0,0,377.86,75.6q-2.07,2.49-9.83,12.62a3.32,3.32,0,0,1-2.82,1.19,12,12,0,0,1-4-.74c-1.38-.5-2.07-1.14-2.07-1.93q0-.58,9.42-16.62T378,52.64c0-1-.58-1.45-1.75-1.45s-3.56,1.74-7.2,5.22Q354,70.73,345.81,84.9a25.91,25.91,0,0,1-2.08,2.61C342.71,88.7,342,89.29,341.66,89.29Z"/><path class="cls-1" d="M440.82,75.6a6.48,6.48,0,0,1-.36,2.55,22.37,22.37,0,0,1-9.24,9.57q-6.35,3.65-11,3.64a11.44,11.44,0,0,1-8.06-3.14q-3.37-3.14-3.38-6.4T412,72.34c2.17-4.14,4.35-8,6.52-11.49s3.26-5.42,3.26-5.72-.41-.88-1.22-1.75-1.21-1.51-1.21-1.92.82-1.5,2.46-3.26a41.6,41.6,0,0,1,6-5.21q3.53-2.58,5.39-2.58a4.4,4.4,0,0,1,3.35,1.66,4.75,4.75,0,0,1,1.48,3q0,1.36-14.1,25.65c-.12.24-.44.76-1,1.57s-.95,1.48-1.24,2-.64,1.17-1,1.92a9.34,9.34,0,0,0-1.18,4c0,1.35.9,2,2.72,2a10.51,10.51,0,0,0,5.66-1.87,26.24,26.24,0,0,0,5.07-4.12q5.56-6,6.34-6C440.3,70.27,440.82,72.05,440.82,75.6Zm9.59-51.72c0,2.25-1,4.51-3.14,6.78s-4.27,3.41-6.54,3.41-3.41-1.19-3.41-3.56a9.91,9.91,0,0,1,3-6.78,8.91,8.91,0,0,1,6.61-3.23,3.6,3.6,0,0,1,2.55.89A3.24,3.24,0,0,1,450.41,23.88Z"/><path class="cls-1" d="M486.92,1.69a6,6,0,0,1,2.16,5q0,3.32-3.68,10.39a129.07,129.07,0,0,1-8.82,14.46q-5.16,7.38-11.68,15.67Q454.6,60.38,445.12,70.86a22,22,0,0,1-.51,2.64,17.56,17.56,0,0,0-.44,3.88A4.6,4.6,0,0,0,446,80.9a6.58,6.58,0,0,0,4.48,1.57,11,11,0,0,0,5.72-1.89,28.3,28.3,0,0,0,5.3-4.21q5.92-6.11,7.35-6.1c.94,0,1.42,1.44,1.42,4.32v1.19a5.54,5.54,0,0,1-.83,3.38,32.8,32.8,0,0,1-11.2,9.09,27.2,27.2,0,0,1-11.79,3c-3.71,0-6.54-1.13-8.47-3.4S435,82.46,435,78.5q0-11.55,6.19-27.16a126.42,126.42,0,0,1,14-26.57Q472.67,0,481.91,0A7.92,7.92,0,0,1,486.92,1.69Zm-7.68,8.15c0-.6-.2-.89-.59-.89q-2.07,0-10.9,11.85A186.69,186.69,0,0,0,455,39.7a101.19,101.19,0,0,0-7.44,17.71q7-8.29,19.35-25.86T479.24,9.84Z"/><path class="cls-1" d="M501.2,44.61A9.18,9.18,0,0,1,498,51.49a10.3,10.3,0,0,1-7.2,3,2,2,0,0,1-1.72-.62,2.88,2.88,0,0,1-.41-1.63,8,8,0,0,1,.23-2,27.68,27.68,0,0,0-4.74,2.2,57.23,57.23,0,0,0-6.4,4.38c-2.52,1.94-3.79,3.38-3.79,4.33,0,.31.47.47,1.39.47a15.34,15.34,0,0,0,4.3-1,15.39,15.39,0,0,1,4.06-1,5.89,5.89,0,0,1,1.51.12,5.22,5.22,0,0,1,1.66,1.81,4.62,4.62,0,0,1,.89,2.19c0,.53-.52,1.24-1.54,2.1a10.93,10.93,0,0,1-3.5,2,20.2,20.2,0,0,0-2.61,1q-12.5,7-12.5,9.59,0,4.64,7.88,4.63a18.94,18.94,0,0,0,10.13-3.2,82.25,82.25,0,0,0,7.8-5.54c2.31-1.88,3.77-3,4.38-3.47a2.9,2.9,0,0,1,1.39-.65c1,0,1.54,1.15,1.54,3.44a15.86,15.86,0,0,1-.41,4.53A7.65,7.65,0,0,1,498,80.93q-12.69,10.32-24,10.31a23.39,23.39,0,0,1-9.66-1.66q-6.63-3-6.63-9.24,0-8.18,11.32-12.38a5.2,5.2,0,0,1-2.91-2.58,14.21,14.21,0,0,1-.65-5c0-2.32,1.08-4.76,3.23-7.35a26,26,0,0,1,7.91-6.37Q487,41,495.21,41a9.27,9.27,0,0,1,4,1A2.93,2.93,0,0,1,501.2,44.61Z"/></g></g></svg>