<svg xmlns="http://www.w3.org/2000/svg" viewBox="0 0 262.46 220.74"><defs><style>.cls-1{fill:#fff;}.cls-2{fill:#8db9ec;}.cls-3{fill:none;stroke:#8db9ec;stroke-miterlimit:10;stroke-width:3.84px;}.cls-4{fill:#d2e2f7;}</style></defs><g id="Capa_2" data-name="Capa 2"><g id="Capa_2-2" data-name="Capa 2"><rect class="cls-1" width="262.46" height="220.74" rx="22.12"/><path class="cls-2" d="M20.53,149.29a1,1,0,0,1-1.13-1.15V132.21a1,1,0,0,1,1.16-1.16h9.29a.78.78,0,0,1,.9.87.8.8,0,0,1-.9.9H21.5v6.3h7.81q.93,0,.93.87a.81.81,0,0,1-.93.9H21.5v7.25C21.5,148.9,21.18,149.29,20.53,149.29Z"/><path class="cls-2" d="M36.56,149.34a5.14,5.14,0,0,1-2.29-.5,4,4,0,0,1-1.6-1.37,3.42,3.42,0,0,1-.59-1.95,3.13,3.13,0,0,1,.7-2.15,4.21,4.21,0,0,1,2.34-1.14,22.42,22.42,0,0,1,4.44-.34h.82v-.8a3.33,3.33,0,0,0-.65-2.29,2.75,2.75,0,0,0-2.09-.7,7.08,7.08,0,0,0-1.81.23,8.6,8.6,0,0,0-1.88.74.83.83,0,0,1-.73.09.78.78,0,0,1-.41-.46,1,1,0,0,1,0-.67.88.88,0,0,1,.5-.52,9.19,9.19,0,0,1,2.22-.82,9.43,9.43,0,0,1,2.11-.26,4.82,4.82,0,0,1,3.57,1.18,5,5,0,0,1,1.17,3.66v6.94c0,.72-.32,1.08-1,1.08s-1-.36-1-1.08V147a3.9,3.9,0,0,1-1.5,1.74A4.29,4.29,0,0,1,36.56,149.34Zm.34-1.56a3.26,3.26,0,0,0,2.51-1.07,3.87,3.87,0,0,0,1-2.7v-.77h-.8a21.09,21.09,0,0,0-3.26.2,3.07,3.07,0,0,0-1.67.66,1.78,1.78,0,0,0-.47,1.29,2.19,2.19,0,0,0,.73,1.72A2.82,2.82,0,0,0,36.9,147.78Z"/><path class="cls-2" d="M51.49,149.34a6.16,6.16,0,0,1-3.22-.81,5.31,5.31,0,0,1-2.09-2.28,7.61,7.61,0,0,1-.73-3.44,6.57,6.57,0,0,1,1.61-4.68,5.85,5.85,0,0,1,4.43-1.7,6.72,6.72,0,0,1,1.93.3,5,5,0,0,1,1.81,1,.75.75,0,0,1,.37.76.92.92,0,0,1-.43.7.75.75,0,0,1-.86-.11,4.51,4.51,0,0,0-2.69-.92,3.73,3.73,0,0,0-3,1.22,5.18,5.18,0,0,0-1.05,3.49,5.46,5.46,0,0,0,1.05,3.53,3.63,3.63,0,0,0,3,1.29,4.51,4.51,0,0,0,2.69-.92.72.72,0,0,1,.85-.09.86.86,0,0,1,.39.7.74.74,0,0,1-.37.74,4.94,4.94,0,0,1-1.79,1A6.43,6.43,0,0,1,51.49,149.34Z"/><path class="cls-2" d="M59.1,133.67c-.91,0-1.36-.43-1.36-1.29s.45-1.25,1.36-1.25,1.36.42,1.36,1.25S60,133.67,59.1,133.67Zm0,15.57c-.68,0-1-.38-1-1.13V137.63c0-.73.34-1.1,1-1.1s1,.37,1,1.1v10.48C60.15,148.86,59.8,149.24,59.1,149.24Z"/><path class="cls-2" d="M67.81,149.34A3.55,3.55,0,0,1,65,148.23,4.8,4.8,0,0,1,64,145V131.92a.92.92,0,0,1,1-1,.93.93,0,0,1,1,1v12.91c0,1.83.73,2.74,2.18,2.74l.41,0a2.19,2.19,0,0,1,.36,0,.39.39,0,0,1,.39.13,1.07,1.07,0,0,1,.12.61.91.91,0,0,1-.87,1,2,2,0,0,1-.44.07Z"/><path class="cls-2" d="M72.62,133.67q-1.35,0-1.35-1.29c0-.83.45-1.25,1.35-1.25s1.36.42,1.36,1.25S73.53,133.67,72.62,133.67Zm0,15.57c-.68,0-1-.38-1-1.13V137.63c0-.73.34-1.1,1-1.1s1,.37,1,1.1v10.48C73.67,148.86,73.32,149.24,72.62,149.24Z"/><path class="cls-2" d="M82.28,149.34a5.37,5.37,0,0,1-2.91-.79,5.18,5.18,0,0,1-1.92-2.25,8,8,0,0,1-.68-3.41,8.1,8.1,0,0,1,.68-3.45,5.12,5.12,0,0,1,1.92-2.23,5.37,5.37,0,0,1,2.91-.78,5,5,0,0,1,2.57.64,4,4,0,0,1,1.65,1.77v-6.92a.93.93,0,0,1,1-1,.92.92,0,0,1,1,1v16.29c0,.72-.34,1.08-1,1.08s-1-.36-1-1.08v-1.33a4.25,4.25,0,0,1-1.68,1.81A5,5,0,0,1,82.28,149.34Zm.43-1.67a3.46,3.46,0,0,0,2.79-1.24,6.47,6.47,0,0,0,0-7.1,3.79,3.79,0,0,0-5.59,0,6.58,6.58,0,0,0,0,7.1A3.44,3.44,0,0,0,82.71,147.67Z"/><path class="cls-2" d="M96.39,149.34a5.11,5.11,0,0,1-2.29-.5,4,4,0,0,1-1.6-1.37,3.35,3.35,0,0,1-.59-1.95,3.13,3.13,0,0,1,.7-2.15,4.22,4.22,0,0,1,2.33-1.14,22.6,22.6,0,0,1,4.45-.34h.81v-.8a3.28,3.28,0,0,0-.65-2.29,2.72,2.72,0,0,0-2.09-.7,7.06,7.06,0,0,0-1.8.23,8.41,8.41,0,0,0-1.88.74.83.83,0,0,1-.73.09.75.75,0,0,1-.41-.46,1,1,0,0,1,0-.67.85.85,0,0,1,.5-.52,9.28,9.28,0,0,1,2.21-.82,9.5,9.5,0,0,1,2.11-.26,4.83,4.83,0,0,1,3.58,1.18,5.05,5.05,0,0,1,1.16,3.66v6.94c0,.72-.31,1.08-.94,1.08s-1-.36-1-1.08V147a4,4,0,0,1-1.5,1.74A4.34,4.34,0,0,1,96.39,149.34Zm.33-1.56a3.24,3.24,0,0,0,2.51-1.07,3.82,3.82,0,0,0,1-2.7v-.77h-.79a21.09,21.09,0,0,0-3.26.2,3,3,0,0,0-1.67.66,1.74,1.74,0,0,0-.47,1.29,2.19,2.19,0,0,0,.73,1.72A2.79,2.79,0,0,0,96.72,147.78Z"/><path class="cls-2" d="M110.78,149.34a5.08,5.08,0,0,1-4.83-3,8,8,0,0,1-.67-3.41,8.11,8.11,0,0,1,.67-3.45,5.21,5.21,0,0,1,1.93-2.23,5.31,5.31,0,0,1,2.9-.78,5.07,5.07,0,0,1,2.58.64,4,4,0,0,1,1.65,1.77v-6.92a.93.93,0,0,1,1-1,.92.92,0,0,1,1,1v16.29q0,1.08-1,1.08c-.68,0-1-.36-1-1.08v-1.33a4.17,4.17,0,0,1-1.67,1.81A5.07,5.07,0,0,1,110.78,149.34Zm.44-1.67a3.46,3.46,0,0,0,2.79-1.24,6.53,6.53,0,0,0,0-7.1,3.8,3.8,0,0,0-5.6,0,6.63,6.63,0,0,0,0,7.1A3.46,3.46,0,0,0,111.22,147.67Z"/><path class="cls-2" d="M126.58,149.34a6.29,6.29,0,0,1-4.66-1.73,6.39,6.39,0,0,1-1.71-4.7,7.12,7.12,0,0,1,.77-3.39,5.61,5.61,0,0,1,2.11-2.28,5.89,5.89,0,0,1,3.11-.81,5,5,0,0,1,4,1.63,6.49,6.49,0,0,1,1.43,4.47c0,.53-.29.79-.89.79h-8.48a4.7,4.7,0,0,0,1.23,3.24,4.25,4.25,0,0,0,3.12,1.11,7.29,7.29,0,0,0,1.72-.21,5.48,5.48,0,0,0,1.69-.78.93.93,0,0,1,1-.16.81.81,0,0,1,.41.71,1,1,0,0,1-.53.83,6.45,6.45,0,0,1-2,.95A8.31,8.31,0,0,1,126.58,149.34ZM126.25,138a3.63,3.63,0,0,0-2.79,1.1,4.82,4.82,0,0,0-1.2,2.89h7.55a4.62,4.62,0,0,0-1-2.94A3.2,3.2,0,0,0,126.25,138Z"/><path class="cls-2" d="M138.8,149.34a9.29,9.29,0,0,1-2.32-.3,6.65,6.65,0,0,1-2.16-1,.79.79,0,0,1-.45-.73.86.86,0,0,1,.35-.7.75.75,0,0,1,.84,0,7.17,7.17,0,0,0,1.93.86,7.54,7.54,0,0,0,1.86.24,3.72,3.72,0,0,0,2.2-.54,1.7,1.7,0,0,0,.75-1.46,1.47,1.47,0,0,0-.49-1.14,3.47,3.47,0,0,0-1.54-.65l-2.33-.51q-3.16-.69-3.17-3.28a3.24,3.24,0,0,1,1.34-2.71,5.62,5.62,0,0,1,3.52-1,7.51,7.51,0,0,1,2.13.3,5.16,5.16,0,0,1,1.84.93.78.78,0,0,1,.39.74,1,1,0,0,1-.4.68.72.72,0,0,1-.83-.06,5.91,5.91,0,0,0-1.56-.76,5.4,5.4,0,0,0-1.57-.24,3.58,3.58,0,0,0-2.17.56,1.78,1.78,0,0,0-.75,1.49c0,1,.64,1.57,1.9,1.84l2.33.49a5.26,5.26,0,0,1,2.48,1.14,2.71,2.71,0,0,1,.85,2.11,3.13,3.13,0,0,1-1.36,2.7A6,6,0,0,1,138.8,149.34Z"/><path class="cls-2" d="M158.26,149.34a5.31,5.31,0,0,1-2.9-.79,5.18,5.18,0,0,1-1.92-2.25,7.83,7.83,0,0,1-.68-3.41,8,8,0,0,1,.68-3.45,5.12,5.12,0,0,1,1.92-2.23,5.31,5.31,0,0,1,2.9-.78,5,5,0,0,1,2.58.64,4,4,0,0,1,1.65,1.77v-6.92a.93.93,0,0,1,1-1,.92.92,0,0,1,1,1v16.29q0,1.08-1,1.08t-1-1.08v-1.33a4.25,4.25,0,0,1-1.68,1.81A5,5,0,0,1,158.26,149.34Zm.44-1.67a3.46,3.46,0,0,0,2.79-1.24,6.53,6.53,0,0,0,0-7.1,3.8,3.8,0,0,0-5.6,0,6.63,6.63,0,0,0,0,7.1A3.48,3.48,0,0,0,158.7,147.67Z"/><path class="cls-2" d="M174.07,149.34a6.3,6.3,0,0,1-4.67-1.73,6.39,6.39,0,0,1-1.71-4.7,7.24,7.24,0,0,1,.77-3.39,5.61,5.61,0,0,1,2.11-2.28,5.91,5.91,0,0,1,3.11-.81,5,5,0,0,1,4,1.63,6.49,6.49,0,0,1,1.44,4.47c0,.53-.3.79-.9.79h-8.48a4.7,4.7,0,0,0,1.23,3.24,4.26,4.26,0,0,0,3.13,1.11,7.27,7.27,0,0,0,1.71-.21,5.37,5.37,0,0,0,1.69-.78.93.93,0,0,1,1-.16.81.81,0,0,1,.41.71,1,1,0,0,1-.53.83,6.45,6.45,0,0,1-2,.95A8.24,8.24,0,0,1,174.07,149.34ZM173.73,138a3.64,3.64,0,0,0-2.79,1.1,4.82,4.82,0,0,0-1.2,2.89h7.55a4.68,4.68,0,0,0-1-2.94A3.24,3.24,0,0,0,173.73,138Z"/><path class="cls-2" d="M190,149.29c-.7,0-1.05-.37-1.05-1.1V132.13a1,1,0,0,1,1.08-1.08h6.07a6.44,6.44,0,0,1,4.47,1.41,6,6,0,0,1,0,8,6.4,6.4,0,0,1-4.47,1.42h-5.05v6.28C191.07,148.92,190.72,149.29,190,149.29Zm1-9.15h4.79q4.2,0,4.2-3.66t-4.2-3.69h-4.79Z"/><path class="cls-2" d="M208.21,149.34a5.18,5.18,0,0,1-2.3-.5,4.11,4.11,0,0,1-1.6-1.37,3.42,3.42,0,0,1-.59-1.95,3.13,3.13,0,0,1,.71-2.15,4.18,4.18,0,0,1,2.33-1.14,22.42,22.42,0,0,1,4.44-.34H212v-.8a3.33,3.33,0,0,0-.65-2.29,2.73,2.73,0,0,0-2.09-.7,7,7,0,0,0-1.8.23,8.48,8.48,0,0,0-1.89.74.83.83,0,0,1-.73.09.81.81,0,0,1-.41-.46,1.09,1.09,0,0,1,0-.67.91.91,0,0,1,.5-.52,9.74,9.74,0,0,1,4.33-1.08,4.79,4.79,0,0,1,3.57,1.18,5,5,0,0,1,1.17,3.66v6.94c0,.72-.32,1.08-1,1.08s-1-.36-1-1.08V147a3.88,3.88,0,0,1-1.49,1.74A4.34,4.34,0,0,1,208.21,149.34Zm.33-1.56a3.26,3.26,0,0,0,2.51-1.07,3.82,3.82,0,0,0,1-2.7v-.77h-.79a21.32,21.32,0,0,0-3.27.2,3,3,0,0,0-1.66.66,1.74,1.74,0,0,0-.48,1.29,2.23,2.23,0,0,0,.73,1.72A2.82,2.82,0,0,0,208.54,147.78Z"/><path class="cls-2" d="M223.37,154a11.11,11.11,0,0,1-2.65-.32,7.4,7.4,0,0,1-2.35-1,.88.88,0,0,1-.44-.55.84.84,0,0,1,.09-.62.9.9,0,0,1,.44-.42.68.68,0,0,1,.63.05,7.79,7.79,0,0,0,2.15.95,8.36,8.36,0,0,0,2,.25q3.67,0,3.68-3.79v-2.2a4.09,4.09,0,0,1-1.68,1.86,5,5,0,0,1-2.59.68,5.46,5.46,0,0,1-3-.8,5.27,5.27,0,0,1-1.93-2.19,8.06,8.06,0,0,1,0-6.48,5.07,5.07,0,0,1,1.93-2.16,5.62,5.62,0,0,1,3-.77,5.09,5.09,0,0,1,2.58.64,4,4,0,0,1,1.67,1.79v-1.33a1,1,0,1,1,2,0v10.68a5.9,5.9,0,0,1-1.42,4.3A5.65,5.65,0,0,1,223.37,154Zm-.31-6.81a3.53,3.53,0,0,0,2.84-1.23,4.92,4.92,0,0,0,1-3.31,4.87,4.87,0,0,0-1-3.29,3.91,3.91,0,0,0-5.66,0,4.87,4.87,0,0,0-1.05,3.29,4.92,4.92,0,0,0,1.05,3.31A3.52,3.52,0,0,0,223.06,147.14Z"/><path class="cls-2" d="M238,149.34a6.14,6.14,0,0,1-3.15-.79,5.35,5.35,0,0,1-2.06-2.25,8.35,8.35,0,0,1,0-6.83,5.26,5.26,0,0,1,2.06-2.24,6.58,6.58,0,0,1,6.29,0,5.17,5.17,0,0,1,2.07,2.24,8.35,8.35,0,0,1,0,6.83,5.25,5.25,0,0,1-2.07,2.25A6.15,6.15,0,0,1,238,149.34Zm0-1.67a3.46,3.46,0,0,0,2.79-1.24,6.53,6.53,0,0,0,0-7.1,3.79,3.79,0,0,0-5.59,0,6.58,6.58,0,0,0,0,7.1A3.44,3.44,0,0,0,238,147.67Z"/><path class="cls-2" d="M40.31,174.72A1.54,1.54,0,0,1,38.57,173V158.41a1.54,1.54,0,0,1,1.74-1.75h5c3,0,5.36.78,7,2.33a10.28,10.28,0,0,1,0,13.37c-1.65,1.57-4,2.36-7,2.36ZM41.85,172h3.23q6.24,0,6.25-6.32t-6.25-6.3H41.85Z"/><path class="cls-2" d="M64,175a7.9,7.9,0,0,1-3.66-.8,5.72,5.72,0,0,1-2.37-2.25,7.6,7.6,0,0,1,0-6.87,6,6,0,0,1,2.22-2.29,6.35,6.35,0,0,1,3.24-.83,5.44,5.44,0,0,1,4.22,1.69,6.57,6.57,0,0,1,1.55,4.61c0,.63-.41.95-1.23.95H60.16q.36,3.34,3.84,3.35a7.67,7.67,0,0,0,1.5-.16,5.56,5.56,0,0,0,1.58-.58,1.39,1.39,0,0,1,1.12-.24,1,1,0,0,1,.66.55,1.28,1.28,0,0,1,0,.91,1.51,1.51,0,0,1-.73.85,6.66,6.66,0,0,1-2.06.84A9.67,9.67,0,0,1,64,175Zm-.46-10.86a3.08,3.08,0,0,0-2.28.87,3.86,3.86,0,0,0-1.05,2.35h6.3a3.84,3.84,0,0,0-.85-2.39A2.71,2.71,0,0,0,63.49,164.12Zm1.1-3.74a.91.91,0,0,1-.61.41,1.12,1.12,0,0,1-.69-.13,1.08,1.08,0,0,1-.48-.51.88.88,0,0,1,.07-.75l1.94-3.81a1.11,1.11,0,0,1,.8-.68,1.47,1.47,0,0,1,1,.17,1.34,1.34,0,0,1,.66.73,1,1,0,0,1-.18,1Z"/><path class="cls-2" d="M78.88,175a4.92,4.92,0,0,1-2.45-.61,4,4,0,0,1-1.62-1.62v.54c0,1.09-.52,1.63-1.56,1.63a1.42,1.42,0,0,1-1.59-1.63V158.07a1.6,1.6,0,1,1,3.2,0v6a4.13,4.13,0,0,1,1.63-1.52,4.89,4.89,0,0,1,2.39-.58,5.23,5.23,0,0,1,2.9.79A5.35,5.35,0,0,1,83.7,165a9.1,9.1,0,0,1,0,6.95,5.3,5.3,0,0,1-1.93,2.26A5.25,5.25,0,0,1,78.88,175ZM78,172.54a2.86,2.86,0,0,0,2.3-1,4.69,4.69,0,0,0,.87-3.06,4.63,4.63,0,0,0-.87-3.07,3.14,3.14,0,0,0-4.61,0,4.63,4.63,0,0,0-.87,3.07,4.69,4.69,0,0,0,.87,3.06A2.86,2.86,0,0,0,78,172.54Z"/><path class="cls-2" d="M88.62,159.63a2,2,0,0,1-1.4-.44,1.61,1.61,0,0,1-.5-1.25,1.58,1.58,0,0,1,.5-1.25,2.06,2.06,0,0,1,1.4-.44c1.26,0,1.89.57,1.89,1.69S89.88,159.63,88.62,159.63Zm0,15.27a1.47,1.47,0,0,1-1.18-.46,1.84,1.84,0,0,1-.41-1.28v-9.4Q87,162,88.62,162c1.07,0,1.61.58,1.61,1.74v9.4a1.89,1.89,0,0,1-.41,1.28A1.52,1.52,0,0,1,88.62,174.9Z"/><path class="cls-2" d="M99.3,175c-3.32,0-5-1.64-5-4.92V164.6H93q-1.29,0-1.29-1.2T93,162.2h1.33v-2.33a1.6,1.6,0,1,1,3.2,0v2.33h2.71c.86,0,1.28.4,1.28,1.2s-.42,1.2-1.28,1.2H97.53v5.28a2.71,2.71,0,0,0,.54,1.84,2.21,2.21,0,0,0,1.74.62,3.57,3.57,0,0,0,.77-.08,5.2,5.2,0,0,1,.59-.1.61.61,0,0,1,.51.19,1.4,1.4,0,0,1,.2.88,2.31,2.31,0,0,1-.16.91,1,1,0,0,1-.61.55,6.39,6.39,0,0,1-.87.2A5.79,5.79,0,0,1,99.3,175Z"/><path class="cls-2" d="M109,175a6.84,6.84,0,0,1-3.38-.8,5.52,5.52,0,0,1-2.23-2.26,7.23,7.23,0,0,1-.8-3.47,7.1,7.1,0,0,1,.8-3.46,5.52,5.52,0,0,1,2.23-2.26,7.63,7.63,0,0,1,6.76,0,5.58,5.58,0,0,1,2.23,2.26,7.22,7.22,0,0,1,.79,3.46,7.34,7.34,0,0,1-.79,3.47,5.58,5.58,0,0,1-2.23,2.26A6.89,6.89,0,0,1,109,175Zm0-2.44a2.86,2.86,0,0,0,2.3-1,4.69,4.69,0,0,0,.87-3.06,4.63,4.63,0,0,0-.87-3.07,3.14,3.14,0,0,0-4.61,0,4.63,4.63,0,0,0-.87,3.07,4.69,4.69,0,0,0,.87,3.06A2.86,2.86,0,0,0,109,172.54Z"/><path class="cls-2" d="M125.55,175.46a1.15,1.15,0,0,1-.66.81,1.39,1.39,0,0,1-.94,0,1.31,1.31,0,0,1-.75-.55,1.17,1.17,0,0,1-.06-1.05l5.92-18.36a1.22,1.22,0,0,1,.66-.82,1.33,1.33,0,0,1,.94-.07,1.31,1.31,0,0,1,.74.57,1.14,1.14,0,0,1,.06,1Z"/><path class="cls-2" d="M148.62,175a9.64,9.64,0,0,1-4.83-1.14,7.68,7.68,0,0,1-3.08-3.23,11.77,11.77,0,0,1,0-9.85,7.69,7.69,0,0,1,3.08-3.21,9.64,9.64,0,0,1,4.83-1.14,10.8,10.8,0,0,1,2.77.36,8.3,8.3,0,0,1,2.38,1,1.67,1.67,0,0,1,.79,1,1.49,1.49,0,0,1-.15,1.1,1.43,1.43,0,0,1-.85.67,1.48,1.48,0,0,1-1.25-.3,5.6,5.6,0,0,0-1.72-.74,7.31,7.31,0,0,0-1.87-.23,5.24,5.24,0,0,0-4.17,1.65,8.46,8.46,0,0,0,0,9.41,5.22,5.22,0,0,0,4.17,1.67,7.33,7.33,0,0,0,1.92-.25,6.6,6.6,0,0,0,1.8-.75,1.49,1.49,0,0,1,1.23-.28,1.29,1.29,0,0,1,.8.62,1.49,1.49,0,0,1,.17,1,1.62,1.62,0,0,1-.69,1,7.81,7.81,0,0,1-2.45,1.14A10.76,10.76,0,0,1,148.62,175Z"/><path class="cls-2" d="M159,174.92a1.45,1.45,0,0,1-1.64-1.63V163.6a1.56,1.56,0,1,1,3.12,0v.8c.62-1.47,1.93-2.29,4-2.46.73-.09,1.14.33,1.23,1.25s-.36,1.41-1.33,1.52l-.57,0c-2.1.2-3.15,1.28-3.15,3.22v5.31A1.43,1.43,0,0,1,159,174.92Z"/><path class="cls-2" d="M173.34,175a7.92,7.92,0,0,1-3.67-.8,5.63,5.63,0,0,1-2.36-2.25,6.85,6.85,0,0,1-.84-3.46,6.93,6.93,0,0,1,.81-3.41,6,6,0,0,1,2.23-2.29,6.32,6.32,0,0,1,3.24-.83,5.42,5.42,0,0,1,4.21,1.69,6.57,6.57,0,0,1,1.55,4.61c0,.63-.41.95-1.23.95h-7.73c.23,2.23,1.52,3.35,3.84,3.35a7.83,7.83,0,0,0,1.5-.16,5.5,5.5,0,0,0,1.57-.58,1.41,1.41,0,0,1,1.13-.24,1,1,0,0,1,.65.55,1.23,1.23,0,0,1,0,.91,1.48,1.48,0,0,1-.73.85,6.56,6.56,0,0,1-2.06.84A9.66,9.66,0,0,1,173.34,175Zm-.46-10.86a3.08,3.08,0,0,0-2.28.87,3.86,3.86,0,0,0-1,2.35h6.3A3.85,3.85,0,0,0,175,165,2.7,2.7,0,0,0,172.88,164.12Zm1.1-3.74a.93.93,0,0,1-.62.41,1.12,1.12,0,0,1-.69-.13,1,1,0,0,1-.47-.51.84.84,0,0,1,.06-.75l2-3.81a1.08,1.08,0,0,1,.79-.68,1.5,1.5,0,0,1,1,.17,1.36,1.36,0,0,1,.65.73,1,1,0,0,1-.18,1Z"/><path class="cls-2" d="M185.86,175a5.1,5.1,0,0,1-4.81-3.06,9,9,0,0,1,0-6.95,5.3,5.3,0,0,1,1.93-2.24,5.23,5.23,0,0,1,2.88-.79,5,5,0,0,1,2.41.59,4,4,0,0,1,1.61,1.56v-6a1.6,1.6,0,1,1,3.2,0v15.22a1.42,1.42,0,0,1-1.59,1.63c-1.06,0-1.58-.54-1.58-1.63v-.54a4,4,0,0,1-1.62,1.62A4.87,4.87,0,0,1,185.86,175Zm.9-2.44a2.86,2.86,0,0,0,2.3-1,4.69,4.69,0,0,0,.87-3.06,4.63,4.63,0,0,0-.87-3.07,3.14,3.14,0,0,0-4.61,0,4.63,4.63,0,0,0-.87,3.07,4.69,4.69,0,0,0,.87,3.06A2.86,2.86,0,0,0,186.76,172.54Z"/><path class="cls-2" d="M198,159.63a2,2,0,0,1-1.4-.44,1.61,1.61,0,0,1-.5-1.25,1.58,1.58,0,0,1,.5-1.25,2.08,2.08,0,0,1,1.4-.44c1.26,0,1.89.57,1.89,1.69S199.26,159.63,198,159.63Zm0,15.27a1.49,1.49,0,0,1-1.18-.46,1.89,1.89,0,0,1-.41-1.28v-9.4q0-1.74,1.59-1.74c1.07,0,1.61.58,1.61,1.74v9.4a1.84,1.84,0,0,1-.41,1.28A1.5,1.5,0,0,1,198,174.9Z"/><path class="cls-2" d="M208.68,175q-5,0-5-4.92V164.6h-1.33c-.86,0-1.28-.4-1.28-1.2s.42-1.2,1.28-1.2h1.33v-2.33a1.6,1.6,0,1,1,3.2,0v2.33h2.72c.85,0,1.28.4,1.28,1.2s-.43,1.2-1.28,1.2h-2.72v5.28a2.71,2.71,0,0,0,.54,1.84,2.21,2.21,0,0,0,1.74.62,3.5,3.5,0,0,0,.77-.08,5.6,5.6,0,0,1,.59-.1.61.61,0,0,1,.51.19,1.32,1.32,0,0,1,.21.88,2.31,2.31,0,0,1-.17.91.94.94,0,0,1-.6.55,7.19,7.19,0,0,1-.87.2A5.9,5.9,0,0,1,208.68,175Z"/><path class="cls-2" d="M218.36,175a6.84,6.84,0,0,1-3.38-.8,5.52,5.52,0,0,1-2.23-2.26,7.23,7.23,0,0,1-.79-3.47,7.1,7.1,0,0,1,.79-3.46,5.52,5.52,0,0,1,2.23-2.26,7.63,7.63,0,0,1,6.76,0A5.52,5.52,0,0,1,224,165a7.1,7.1,0,0,1,.79,3.46,7.23,7.23,0,0,1-.79,3.47,5.52,5.52,0,0,1-2.23,2.26A6.87,6.87,0,0,1,218.36,175Zm0-2.44a2.84,2.84,0,0,0,2.3-1,4.69,4.69,0,0,0,.88-3.06,4.63,4.63,0,0,0-.88-3.07,3.12,3.12,0,0,0-4.6,0,4.57,4.57,0,0,0-.88,3.07,4.63,4.63,0,0,0,.88,3.06A2.84,2.84,0,0,0,218.36,172.54Z"/><rect class="cls-3" x="89.5" y="52.66" width="82.45" height="53.92" rx="11.27"/><rect class="cls-2" x="89.5" y="62.65" width="83.34" height="10.45"/><rect class="cls-2" x="98.27" y="96.14" width="65.61" height="1.08"/><rect class="cls-2" x="98.27" y="98.94" width="65.61" height="1.08"/><circle class="cls-4" cx="129.82" cy="50.49" r="16.46"/><path class="cls-2" d="M132.29,43A3.18,3.18,0,0,0,130,44a3.21,3.21,0,0,0-5.53,2.23V49.7a.91.91,0,0,0,1.81,0V46.18a1.41,1.41,0,1,1,2.81,0V49.7a.91.91,0,0,0,1.81,0V46.18a1.41,1.41,0,1,1,2.81,0v3.5a.91.91,0,1,0,1.81,0v-3.5A3.22,3.22,0,0,0,132.29,43"/><path class="cls-2" d="M130,59.39a5.52,5.52,0,0,1-5.52-5.51V52.67a.92.92,0,1,1,1.83,0v1.21a3.69,3.69,0,0,0,7.37,0V52.65a.92.92,0,0,1,1.83,0v1.23A5.51,5.51,0,0,1,130,59.39"/><path class="cls-2" d="M129.83,64.43a13.94,13.94,0,1,1,13.93-13.94A14,14,0,0,1,129.83,64.43Zm0-25.32a11.39,11.39,0,1,0,11.38,11.38A11.39,11.39,0,0,0,129.83,39.11Z"/></g></g></svg>