<svg xmlns="http://www.w3.org/2000/svg" viewBox="0 0 262.46 220.74"><defs><style>.cls-1{fill:#fff;}.cls-2{fill:#8db9ec;}</style></defs><g id="Capa_2" data-name="Capa 2"><g id="Capa_2-2" data-name="Capa 2"><rect class="cls-1" width="262.46" height="220.74" rx="22.12"/><path class="cls-2" d="M68.21,144.12a1.32,1.32,0,0,1-1.28-.93l-7-16.11a.93.93,0,0,1,0-1,1.07,1.07,0,0,1,.85-.37,1,1,0,0,1,.7.22,1.73,1.73,0,0,1,.42.63l6.35,14.72,6.33-14.75a1.55,1.55,0,0,1,.44-.61,1.09,1.09,0,0,1,.71-.21.88.88,0,0,1,.8.4,1,1,0,0,1,0,1l-7.05,16.11a1.69,1.69,0,0,1-.48.69A1.16,1.16,0,0,1,68.21,144.12Z"/><path class="cls-2" d="M80.58,128.49c-.91,0-1.36-.42-1.36-1.28s.45-1.25,1.36-1.25,1.36.42,1.36,1.25S81.48,128.49,80.58,128.49Zm0,15.57c-.68,0-1-.37-1-1.12V132.46c0-.73.35-1.1,1-1.1s1,.37,1,1.1v10.48C81.63,143.69,81.28,144.06,80.58,144.06Z"/><path class="cls-2" d="M89.7,144.17a9.29,9.29,0,0,1-2.32-.3,6.56,6.56,0,0,1-2.16-1,.8.8,0,0,1-.45-.73.84.84,0,0,1,.34-.7.77.77,0,0,1,.85,0,6.88,6.88,0,0,0,3.79,1.1A3.72,3.72,0,0,0,92,142a1.69,1.69,0,0,0,.74-1.46,1.44,1.44,0,0,0-.48-1.14,3.52,3.52,0,0,0-1.54-.65l-2.33-.51c-2.12-.46-3.18-1.56-3.18-3.28a3.26,3.26,0,0,1,1.35-2.72,5.66,5.66,0,0,1,3.52-1,8,8,0,0,1,2.13.29,5.44,5.44,0,0,1,1.84.94.75.75,0,0,1,.38.74.9.9,0,0,1-.39.68.73.73,0,0,1-.84-.06,5.62,5.62,0,0,0-1.56-.76,5.38,5.38,0,0,0-1.56-.24,3.54,3.54,0,0,0-2.18.56,1.79,1.79,0,0,0-.74,1.49c0,.95.63,1.57,1.9,1.84l2.33.49a5.26,5.26,0,0,1,2.48,1.14,2.74,2.74,0,0,1,.85,2.11,3.18,3.18,0,0,1-1.36,2.7A6,6,0,0,1,89.7,144.17Z"/><path class="cls-2" d="M98.84,128.49c-.91,0-1.36-.42-1.36-1.28s.45-1.25,1.36-1.25,1.36.42,1.36,1.25S99.74,128.49,98.84,128.49Zm0,15.57c-.68,0-1-.37-1-1.12V132.46c0-.73.35-1.1,1-1.1s1,.37,1,1.1v10.48C99.89,143.69,99.54,144.06,98.84,144.06Z"/><path class="cls-2" d="M108.75,144.17a4.31,4.31,0,0,1-3.3-1.17,4.7,4.7,0,0,1-1.1-3.37V133.1h-1.72c-.6,0-.9-.27-.9-.82s.3-.79.9-.79h1.72v-3a1,1,0,1,1,2.07,0v3h3.23c.59,0,.89.26.89.79s-.3.82-.89.82h-3.23v6.33a3.42,3.42,0,0,0,.61,2.21,2.42,2.42,0,0,0,2,.76,2.74,2.74,0,0,0,.82-.1,2,2,0,0,1,.59-.11.43.43,0,0,1,.38.16.89.89,0,0,1,.16.61,1.32,1.32,0,0,1-.12.57.62.62,0,0,1-.39.35,6,6,0,0,1-.81.2A5.18,5.18,0,0,1,108.75,144.17Z"/><path class="cls-2" d="M116.64,144.17a5.11,5.11,0,0,1-2.29-.5,4.05,4.05,0,0,1-1.6-1.37,3.35,3.35,0,0,1-.59-2,3.13,3.13,0,0,1,.7-2.15,4.22,4.22,0,0,1,2.33-1.14,22.48,22.48,0,0,1,4.45-.35h.81v-.79a3.28,3.28,0,0,0-.65-2.29,2.72,2.72,0,0,0-2.09-.71,7.53,7.53,0,0,0-1.8.23,9,9,0,0,0-1.88.75.83.83,0,0,1-.73.09.78.78,0,0,1-.41-.46,1,1,0,0,1,0-.67.87.87,0,0,1,.5-.53,10.23,10.23,0,0,1,2.21-.82,9.46,9.46,0,0,1,2.11-.25,4.83,4.83,0,0,1,3.58,1.18,5,5,0,0,1,1.16,3.66V143c0,.72-.31,1.08-.94,1.08s-1-.36-1-1.08v-1.26a3.94,3.94,0,0,1-1.5,1.75A4.42,4.42,0,0,1,116.64,144.17Zm.33-1.57a3.24,3.24,0,0,0,2.51-1.06,3.84,3.84,0,0,0,1-2.7v-.77h-.79a22.68,22.68,0,0,0-3.26.19,3,3,0,0,0-1.67.67,1.74,1.74,0,0,0-.47,1.29,2.22,2.22,0,0,0,.73,1.72A2.84,2.84,0,0,0,117,142.6Z"/><path class="cls-2" d="M127.32,144.12c-.68,0-1-.36-1-1.08V132.36c0-.7.34-1.05,1-1.05a.92.92,0,0,1,1,1.05v1.25a4.05,4.05,0,0,1,1.74-1.76,5.39,5.39,0,0,1,2.53-.59c3,0,4.43,1.64,4.43,4.92V143q0,1.08-1,1.08A.94.94,0,0,1,135,143V136.3a3.9,3.9,0,0,0-.68-2.54,2.66,2.66,0,0,0-2.16-.81,3.57,3.57,0,0,0-2.73,1.06,3.91,3.91,0,0,0-1,2.83V143A.94.94,0,0,1,127.32,144.12Z"/><path class="cls-2" d="M146,144.17a6,6,0,0,1-3.15-.8,5.39,5.39,0,0,1-2.06-2.24,8.38,8.38,0,0,1,0-6.84,5.45,5.45,0,0,1,2.06-2.24,6.66,6.66,0,0,1,6.29,0,5.36,5.36,0,0,1,2.08,2.24,8.38,8.38,0,0,1,0,6.84,5.3,5.3,0,0,1-2.08,2.24A6.06,6.06,0,0,1,146,144.17Zm0-1.67a3.5,3.5,0,0,0,2.8-1.24,6.54,6.54,0,0,0,0-7.11,3.52,3.52,0,0,0-2.8-1.23,3.48,3.48,0,0,0-2.8,1.23,6.6,6.6,0,0,0,0,7.11A3.46,3.46,0,0,0,146,142.5Z"/><path class="cls-2" d="M159.28,144.17a9.29,9.29,0,0,1-2.32-.3,6.75,6.75,0,0,1-2.16-1,.8.8,0,0,1-.45-.73.85.85,0,0,1,.35-.7.75.75,0,0,1,.84,0,6.94,6.94,0,0,0,3.79,1.1,3.7,3.7,0,0,0,2.2-.54,1.7,1.7,0,0,0,.75-1.46,1.44,1.44,0,0,0-.49-1.14,3.47,3.47,0,0,0-1.54-.65l-2.33-.51c-2.11-.46-3.17-1.56-3.17-3.28a3.27,3.27,0,0,1,1.34-2.72,5.68,5.68,0,0,1,3.52-1,7.88,7.88,0,0,1,2.13.29,5.35,5.35,0,0,1,1.84.94.78.78,0,0,1,.39.74,1,1,0,0,1-.4.68.72.72,0,0,1-.83-.06,5.62,5.62,0,0,0-1.56-.76,5.4,5.4,0,0,0-1.57-.24,3.51,3.51,0,0,0-2.17.56,1.78,1.78,0,0,0-.75,1.49c0,.95.64,1.57,1.9,1.84l2.33.49a5.26,5.26,0,0,1,2.48,1.14,2.71,2.71,0,0,1,.85,2.11,3.15,3.15,0,0,1-1.36,2.7A6,6,0,0,1,159.28,144.17Z"/><path class="cls-2" d="M179.62,144.17a6.3,6.3,0,0,1-4.67-1.73,6.39,6.39,0,0,1-1.71-4.7,7.19,7.19,0,0,1,.77-3.4,5.52,5.52,0,0,1,2.11-2.27,5.91,5.91,0,0,1,3.11-.81,5,5,0,0,1,4,1.63,6.48,6.48,0,0,1,1.44,4.46c0,.53-.3.8-.9.8h-8.48a4.7,4.7,0,0,0,1.23,3.24,4.26,4.26,0,0,0,3.13,1.11,6.8,6.8,0,0,0,1.71-.22,5,5,0,0,0,1.69-.78.94.94,0,0,1,1-.15.8.8,0,0,1,.41.7,1,1,0,0,1-.53.84,6.23,6.23,0,0,1-2,.94A8,8,0,0,1,179.62,144.17Zm-.34-11.37a3.59,3.59,0,0,0-2.79,1.1,4.82,4.82,0,0,0-1.2,2.89h7.55a4.68,4.68,0,0,0-1-2.94A3.24,3.24,0,0,0,179.28,132.8Z"/><path class="cls-2" d="M188.66,144.12c-.69,0-1-.36-1-1.08V132.36c0-.7.33-1.05,1-1.05a.92.92,0,0,1,1,1.05v1.25a4,4,0,0,1,1.75-1.76,5.39,5.39,0,0,1,2.53-.59c3,0,4.43,1.64,4.43,4.92V143q0,1.08-1,1.08a.94.94,0,0,1-1.05-1.08V136.3a3.9,3.9,0,0,0-.68-2.54,2.67,2.67,0,0,0-2.17-.81,3.56,3.56,0,0,0-2.72,1.06,3.91,3.91,0,0,0-1,2.83V143A.94.94,0,0,1,188.66,144.12Z"/><path class="cls-2" d="M50.76,169.75a1.38,1.38,0,0,1-1.28-.61,1.49,1.49,0,0,1,0-1.49l6.76-15a2.35,2.35,0,0,1,.81-1.06,1.84,1.84,0,0,1,1.09-.32,1.81,1.81,0,0,1,1.06.32,2.42,2.42,0,0,1,.81,1.06l6.78,15a1.54,1.54,0,0,1,0,1.5,1.29,1.29,0,0,1-1.22.6,1.67,1.67,0,0,1-1.12-.34,2.92,2.92,0,0,1-.7-1.07l-1.28-3H53.73l-1.26,3a3.24,3.24,0,0,1-.69,1.08A1.46,1.46,0,0,1,50.76,169.75Zm7.35-14.7-3.26,7.71h6.56l-3.25-7.71Z"/><path class="cls-2" d="M73.68,169.75a2,2,0,0,1-1.9-1.36l-4.07-9.45a1.64,1.64,0,0,1,0-1.48,1.42,1.42,0,0,1,1.39-.64,1.55,1.55,0,0,1,1,.27,2.22,2.22,0,0,1,.64,1l3.07,7.68,3.18-7.71a2.19,2.19,0,0,1,.65-1,1.7,1.7,0,0,1,1-.27,1.2,1.2,0,0,1,1.16.64,1.63,1.63,0,0,1,0,1.46l-4.15,9.47A1.94,1.94,0,0,1,73.68,169.75Z"/><path class="cls-2" d="M82.41,169.68a1.87,1.87,0,0,1-1.4-.54,1.9,1.9,0,0,1-.52-1.39,1.82,1.82,0,0,1,.52-1.34,1.9,1.9,0,0,1,1.4-.53,1.85,1.85,0,0,1,1.4.53,1.88,1.88,0,0,1,.5,1.34,2,2,0,0,1-.5,1.39A1.82,1.82,0,0,1,82.41,169.68Z"/><path class="cls-2" d="M102.57,169.8A8.85,8.85,0,0,1,98,168.65a7.9,7.9,0,0,1-3-3.24,11.7,11.7,0,0,1,0-9.82,7.8,7.8,0,0,1,3-3.21,9.79,9.79,0,0,1,9.17,0,7.8,7.8,0,0,1,3,3.21,10.44,10.44,0,0,1,1.08,4.89,10.58,10.58,0,0,1-1.08,4.93,7.88,7.88,0,0,1-3,3.24A8.83,8.83,0,0,1,102.57,169.8Zm0-2.81a4.69,4.69,0,0,0,3.86-1.72,8.92,8.92,0,0,0,0-9.53,5.29,5.29,0,0,0-7.75,0,8.86,8.86,0,0,0,0,9.53A4.7,4.7,0,0,0,102.57,167Z"/><path class="cls-2" d="M118.85,169.8a12.17,12.17,0,0,1-2.33-.23,6.93,6.93,0,0,1-2.2-.79,1.35,1.35,0,0,1-.67-.76,1.27,1.27,0,0,1,0-.84,1,1,0,0,1,.57-.58,1.08,1.08,0,0,1,.93.08,9.28,9.28,0,0,0,1.92.68,8.33,8.33,0,0,0,1.77.19,3.21,3.21,0,0,0,1.83-.42,1.31,1.31,0,0,0,.6-1.12c0-.71-.53-1.18-1.58-1.38l-2.57-.49c-2.16-.41-3.25-1.53-3.25-3.38a3.4,3.4,0,0,1,.68-2.12,4.36,4.36,0,0,1,1.88-1.39,7.44,7.44,0,0,1,2.77-.48,8,8,0,0,1,4,1,1,1,0,0,1,.58.7,1.38,1.38,0,0,1-.11.85,1.13,1.13,0,0,1-.6.56,1.17,1.17,0,0,1-.95-.09,7.08,7.08,0,0,0-1.52-.59,5.85,5.85,0,0,0-1.4-.18,3.17,3.17,0,0,0-1.85.44,1.35,1.35,0,0,0-.6,1.15c0,.75.48,1.21,1.46,1.38l2.56.49a4.77,4.77,0,0,1,2.52,1.13,2.9,2.9,0,0,1,.86,2.2,3.44,3.44,0,0,1-1.46,2.93A6.48,6.48,0,0,1,118.85,169.8Z"/><path class="cls-2" d="M131.35,169.8a12.17,12.17,0,0,1-2.33-.23,6.93,6.93,0,0,1-2.2-.79,1.35,1.35,0,0,1-.67-.76,1.27,1.27,0,0,1,0-.84,1,1,0,0,1,.57-.58,1.08,1.08,0,0,1,.93.08,9.08,9.08,0,0,0,1.92.68,8.33,8.33,0,0,0,1.77.19,3.21,3.21,0,0,0,1.83-.42,1.31,1.31,0,0,0,.6-1.12c0-.71-.53-1.18-1.59-1.38l-2.56-.49c-2.17-.41-3.25-1.53-3.25-3.38a3.4,3.4,0,0,1,.68-2.12,4.36,4.36,0,0,1,1.88-1.39,7.41,7.41,0,0,1,2.77-.48,8,8,0,0,1,4,1,1,1,0,0,1,.57.7,1.31,1.31,0,0,1-.1.85,1.13,1.13,0,0,1-.6.56,1.17,1.17,0,0,1-.95-.09,7.29,7.29,0,0,0-1.52-.59,5.85,5.85,0,0,0-1.4-.18,3.23,3.23,0,0,0-1.86.44,1.35,1.35,0,0,0-.6,1.15c0,.75.49,1.21,1.46,1.38l2.56.49a4.84,4.84,0,0,1,2.53,1.13,2.89,2.89,0,0,1,.85,2.2,3.42,3.42,0,0,1-1.46,2.93A6.45,6.45,0,0,1,131.35,169.8Z"/><path class="cls-2" d="M143.39,169.8a5.38,5.38,0,0,1-2.42-.52,4.31,4.31,0,0,1-1.67-1.42,3.56,3.56,0,0,1-.6-2,3.18,3.18,0,0,1,.72-2.19,4.33,4.33,0,0,1,2.33-1.16,20.74,20.74,0,0,1,4.33-.36h.9v-.54a2.5,2.5,0,0,0-.57-1.84,2.59,2.59,0,0,0-1.89-.57,7.76,7.76,0,0,0-1.6.18,8.45,8.45,0,0,0-1.81.62,1.1,1.1,0,0,1-1,.06,1.09,1.09,0,0,1-.56-.69,1.45,1.45,0,0,1,.06-1,1.27,1.27,0,0,1,.78-.72,12.05,12.05,0,0,1,2.26-.69,11.45,11.45,0,0,1,2-.2,5.71,5.71,0,0,1,4.07,1.27A5.17,5.17,0,0,1,150,162v6.14c0,1.1-.49,1.64-1.48,1.64s-1.51-.54-1.51-1.64v-.56a3.51,3.51,0,0,1-1.39,1.65A4.11,4.11,0,0,1,143.39,169.8Zm.67-2.2a2.75,2.75,0,0,0,2.08-.87,3,3,0,0,0,.84-2.2V164h-.88a10.09,10.09,0,0,0-3.34.38,1.33,1.33,0,0,0-.93,1.34,1.77,1.77,0,0,0,.59,1.38A2.32,2.32,0,0,0,144.06,167.6Z"/><path class="cls-2" d="M165.88,169.8a12.13,12.13,0,0,1-2.87-.36,8,8,0,0,1-2.59-1.07,1.7,1.7,0,0,1-.77-1,1.37,1.37,0,0,1,.13-1,1.29,1.29,0,0,1,.78-.6,1.57,1.57,0,0,1,1.19.21,9.1,9.1,0,0,0,2,.8,7.89,7.89,0,0,0,2,.25q3.47,0,3.46-2.72a2.23,2.23,0,0,0-.86-1.91,4.23,4.23,0,0,0-2.49-.62h-1.64a1.49,1.49,0,0,1-1.09-.36,1.54,1.54,0,0,1,0-2,1.49,1.49,0,0,1,1.09-.36h1.33a3.47,3.47,0,0,0,2.28-.7,2.42,2.42,0,0,0,.84-2,2.13,2.13,0,0,0-.78-1.79,3.61,3.61,0,0,0-2.27-.62,6.84,6.84,0,0,0-1.78.22A7,7,0,0,0,162,155a1.24,1.24,0,0,1-1.07.19,1.37,1.37,0,0,1-.76-.62,1.33,1.33,0,0,1-.16-1,1.36,1.36,0,0,1,.71-.92,9.28,9.28,0,0,1,5.18-1.46,6.84,6.84,0,0,1,4.38,1.26,4.29,4.29,0,0,1,1.56,3.52,4.54,4.54,0,0,1-.74,2.57,4.15,4.15,0,0,1-2,1.58,4.43,4.43,0,0,1,2.43,1.6,4.55,4.55,0,0,1,.88,2.83,4.63,4.63,0,0,1-1.75,3.81A7.43,7.43,0,0,1,165.88,169.8Z"/><path class="cls-2" d="M177.32,169.55a1.68,1.68,0,0,1-1.19-.37,1.47,1.47,0,0,1-.37-1.09,1.78,1.78,0,0,1,.23-.85,4.63,4.63,0,0,1,.67-.87l5.14-5.48a9.71,9.71,0,0,0,1.69-2.24,4.36,4.36,0,0,0,.52-2q0-2.61-3.15-2.61a6.52,6.52,0,0,0-1.74.24,6.32,6.32,0,0,0-1.77.84,1.15,1.15,0,0,1-1.79-.4,1.48,1.48,0,0,1-.17-1,1.39,1.39,0,0,1,.65-.92,8.56,8.56,0,0,1,2.47-1.13,10.09,10.09,0,0,1,2.76-.38,6.7,6.7,0,0,1,4.44,1.3,4.63,4.63,0,0,1,1.55,3.74,6.8,6.8,0,0,1-.78,3.15,14.46,14.46,0,0,1-2.45,3.25l-4,4.15h6.69c.94,0,1.41.45,1.41,1.33a1.24,1.24,0,0,1-1.41,1.39Z"/><path class="cls-2" d="M197.12,169.8a11.15,11.15,0,0,1-2.77-.36,8.49,8.49,0,0,1-2.58-1.1,1.42,1.42,0,0,1-.73-.93,1.46,1.46,0,0,1,.14-1,1.35,1.35,0,0,1,.75-.64,1.4,1.4,0,0,1,1.14.2,9.64,9.64,0,0,0,1.92.82,7.74,7.74,0,0,0,2.08.28,3.63,3.63,0,0,0,2.52-.83,2.9,2.9,0,0,0,.91-2.25,3,3,0,0,0-3.25-3.2,4.74,4.74,0,0,0-1.59.27,4.43,4.43,0,0,0-1.51.94,2.87,2.87,0,0,1-.59.39,1.61,1.61,0,0,1-.77.2c-.87,0-1.31-.42-1.31-1.26v-8.37a1.27,1.27,0,0,1,1.44-1.44h8.43c1,0,1.43.45,1.43,1.36s-.48,1.36-1.43,1.36h-6.66v4.89a5.37,5.37,0,0,1,3.33-1,6,6,0,0,1,3,.73,5.06,5.06,0,0,1,2,2,6.17,6.17,0,0,1,.71,3,6,6,0,0,1-.8,3.11,5.53,5.53,0,0,1-2.26,2.1A7.65,7.65,0,0,1,197.12,169.8Z"/><path class="cls-2" d="M208.26,172.29a1.2,1.2,0,0,1-.7.47.84.84,0,0,1-.66-.14.71.71,0,0,1-.3-.58,1.15,1.15,0,0,1,.33-.8,3.33,3.33,0,0,0,.48-.8,6.78,6.78,0,0,0,.29-.76,2,2,0,0,1-1.28-.59,1.88,1.88,0,0,1,1.4-3.21,1.76,1.76,0,0,1,1.41.61,2.59,2.59,0,0,1,.52,1.73,6.83,6.83,0,0,1-.3,1.93A6.45,6.45,0,0,1,208.26,172.29Z"/><path class="cls-2" d="M79,195.16a1.49,1.49,0,0,1-1.67-1.69V178.69a1.64,1.64,0,1,1,3.28,0v13.68H88c1,0,1.43.46,1.43,1.38A1.25,1.25,0,0,1,88,195.16Z"/><path class="cls-2" d="M95.52,195.41a5.41,5.41,0,0,1-2.42-.52,4.13,4.13,0,0,1-1.66-1.42,3.56,3.56,0,0,1-.6-2,3.17,3.17,0,0,1,.71-2.19,4.36,4.36,0,0,1,2.33-1.16,20.74,20.74,0,0,1,4.33-.36h.9v-.54a2.55,2.55,0,0,0-.56-1.84,2.62,2.62,0,0,0-1.9-.56,7.76,7.76,0,0,0-1.6.18,8.21,8.21,0,0,0-1.81.61,1.1,1.1,0,0,1-1,.06,1.07,1.07,0,0,1-.55-.69,1.39,1.39,0,0,1,0-1,1.33,1.33,0,0,1,.78-.72,12.14,12.14,0,0,1,2.27-.69,11.25,11.25,0,0,1,2-.2,5.67,5.67,0,0,1,4.07,1.27,5.18,5.18,0,0,1,1.34,3.93v6.14c0,1.1-.5,1.64-1.49,1.64s-1.51-.54-1.51-1.64v-.56a3.49,3.49,0,0,1-1.38,1.65A4.17,4.17,0,0,1,95.52,195.41Zm.67-2.2a2.79,2.79,0,0,0,2.09-.87,3.07,3.07,0,0,0,.83-2.2v-.57h-.87a10.16,10.16,0,0,0-3.35.38,1.33,1.33,0,0,0-.93,1.34,1.78,1.78,0,0,0,.59,1.38A2.33,2.33,0,0,0,96.19,193.21Z"/><path class="cls-2" d="M114.3,195.36a1.47,1.47,0,0,1-1.64-1.69v-14.9a1.47,1.47,0,0,1,1.66-1.67h6.17a6.78,6.78,0,0,1,4.59,1.42,5.06,5.06,0,0,1,1.61,4,5.19,5.19,0,0,1-1,3.34,5.25,5.25,0,0,1-3,1.78,3.77,3.77,0,0,1,2.15,2l1.92,3.56a1.76,1.76,0,0,1,.17,1.51q-.27.69-1.32.69a2,2,0,0,1-1.13-.29,2.53,2.53,0,0,1-.77-.91l-2.58-4.76a2.55,2.55,0,0,0-1.09-1.17,3.72,3.72,0,0,0-1.6-.29h-2.44v5.73C115.93,194.8,115.39,195.36,114.3,195.36Zm1.63-9.86h4q3.58,0,3.59-2.92t-3.59-2.89h-4Z"/><path class="cls-2" d="M135.76,195.41a7.85,7.85,0,0,1-3.66-.79,5.6,5.6,0,0,1-2.37-2.25,6.85,6.85,0,0,1-.84-3.46,6.93,6.93,0,0,1,.81-3.41,6,6,0,0,1,2.23-2.29,6.35,6.35,0,0,1,3.24-.83,5.42,5.42,0,0,1,4.21,1.69,6.57,6.57,0,0,1,1.55,4.61c0,.63-.41.95-1.23.95H132q.36,3.35,3.84,3.35a7.17,7.17,0,0,0,1.5-.17,5.47,5.47,0,0,0,1.57-.57A1.41,1.41,0,0,1,140,192a1,1,0,0,1,.65.55,1.23,1.23,0,0,1,.05.91,1.47,1.47,0,0,1-.73.85,6.46,6.46,0,0,1-2.06.84A10.22,10.22,0,0,1,135.76,195.41Zm-.46-10.85a3.08,3.08,0,0,0-2.28.87,3.86,3.86,0,0,0-1.05,2.35h6.3a3.85,3.85,0,0,0-.86-2.39A2.69,2.69,0,0,0,135.3,184.56Z"/><path class="cls-2" d="M145.05,180.07a2.05,2.05,0,0,1-1.39-.44,1.58,1.58,0,0,1-.5-1.25,1.55,1.55,0,0,1,.5-1.25,2.05,2.05,0,0,1,1.39-.44c1.27,0,1.9.57,1.9,1.69S146.32,180.07,145.05,180.07Zm0,15.27a1.5,1.5,0,0,1-1.17-.46,1.84,1.84,0,0,1-.41-1.28v-9.4c0-1.16.52-1.74,1.58-1.74s1.62.58,1.62,1.74v9.4a1.89,1.89,0,0,1-.41,1.28A1.57,1.57,0,0,1,145.05,195.34Z"/><path class="cls-2" d="M151.58,195.36c-1.06,0-1.58-.54-1.58-1.64V184a1.56,1.56,0,1,1,3.12,0v.54a4.26,4.26,0,0,1,1.73-1.64,5.29,5.29,0,0,1,2.45-.56c2.95,0,4.43,1.71,4.43,5.15v6.19a1.61,1.61,0,1,1-3.21,0v-6a3.33,3.33,0,0,0-.55-2.13,2.07,2.07,0,0,0-1.7-.66,2.92,2.92,0,0,0-2.24.88,3.31,3.31,0,0,0-.83,2.35v5.6A1.44,1.44,0,0,1,151.58,195.36Z"/><path class="cls-2" d="M169.1,195.41a5.41,5.41,0,0,1-2.42-.52,4.13,4.13,0,0,1-1.66-1.42,3.56,3.56,0,0,1-.6-2,3.17,3.17,0,0,1,.71-2.19,4.36,4.36,0,0,1,2.33-1.16,20.74,20.74,0,0,1,4.33-.36h.9v-.54a2.5,2.5,0,0,0-.57-1.84,2.57,2.57,0,0,0-1.89-.56,7.76,7.76,0,0,0-1.6.18,8,8,0,0,0-1.81.61,1.1,1.1,0,0,1-1,.06,1,1,0,0,1-.55-.69,1.39,1.39,0,0,1,.05-1,1.33,1.33,0,0,1,.78-.72,11.92,11.92,0,0,1,2.27-.69,11.25,11.25,0,0,1,2-.2,5.67,5.67,0,0,1,4.07,1.27,5.17,5.17,0,0,1,1.33,3.93v6.14c0,1.1-.49,1.64-1.48,1.64s-1.51-.54-1.51-1.64v-.56a3.49,3.49,0,0,1-1.38,1.65A4.17,4.17,0,0,1,169.1,195.41Zm.67-2.2a2.75,2.75,0,0,0,2.08-.87,3,3,0,0,0,.84-2.2v-.57h-.87a10.16,10.16,0,0,0-3.35.38,1.33,1.33,0,0,0-.93,1.34,1.78,1.78,0,0,0,.59,1.38A2.33,2.33,0,0,0,169.77,193.21Z"/><path class="cls-2" d="M134.62,39.23a3,3,0,0,0-2.18.92,3,3,0,0,0-5.21,2.11v3.31a.86.86,0,1,0,1.71,0V42.26a1.33,1.33,0,1,1,2.65,0v3.3h0a.86.86,0,1,0,1.71,0h0v-3.3a1.33,1.33,0,1,1,2.65,0v3.3a.85.85,0,1,0,1.7,0v-3.3a3,3,0,0,0-3-3"/><path class="cls-2" d="M132.42,54.72a5.21,5.21,0,0,1-5.2-5.2V48.38a.87.87,0,1,1,1.73,0v1.14a3.48,3.48,0,0,0,7,0V48.36a.87.87,0,0,1,1.73,0v1.16a5.21,5.21,0,0,1-5.21,5.2"/><path class="cls-2" d="M132.3,59.47a13.15,13.15,0,1,1,13.14-13.14A13.16,13.16,0,0,1,132.3,59.47Zm0-23.88A10.74,10.74,0,1,0,143,46.33,10.75,10.75,0,0,0,132.3,35.59Z"/><path class="cls-2" d="M118,76.72l9.15,0A1.83,1.83,0,0,0,129,74.85l-.05-8.24a1.84,1.84,0,0,0-1.83-1.83l-9.15,0a1.82,1.82,0,0,0-1.82,1.83l0,8.25a1.8,1.8,0,0,0,.54,1.29A1.83,1.83,0,0,0,118,76.72Zm1.78-8.25,5.49,0,0,4.59h-5.49Z"/><path class="cls-2" d="M138.15,76.65l9.14,0a1.83,1.83,0,0,0,1.83-1.84l-.05-8.24a1.87,1.87,0,0,0-.54-1.29,1.82,1.82,0,0,0-1.3-.54l-9.15,0a1.82,1.82,0,0,0-1.82,1.83l.05,8.25a1.83,1.83,0,0,0,1.84,1.82Zm1.78-8.25,5.48,0,0,4.58L140,73Z"/><polygon class="cls-2" points="174.66 60.96 174.66 60.96 174.66 60.96 174.66 60.96"/><path class="cls-2" d="M176.52,70.1l0-7.32a1.8,1.8,0,0,0-.54-1.29,1.83,1.83,0,0,0-1.29-.53L158.19,61l0-7.32H160a1.8,1.8,0,0,0,1.29-.54,1.83,1.83,0,0,0,.53-1.29l0-7.32a1.83,1.83,0,0,0-.55-1.29,1.79,1.79,0,0,0-1.29-.53l-12.47,0a16.34,16.34,0,0,1,.87,3.65l9.78,0,0,3.66-9.81,0a15.47,15.47,0,0,1-.87,3.67l7,0,.12,26.54-43.91.15-.12-26.53,6.85,0a16.38,16.38,0,0,1-.9-3.65l-9.62,0V46.56l9.59,0a16.27,16.27,0,0,1,.85-3.66l-12.29,0a1.82,1.82,0,0,0-1.82,1.83l0,7.32h0a1.83,1.83,0,0,0,1.83,1.82h1.83l0,7.32-16.47,0a1.84,1.84,0,0,0-1.82,1.84l0,7.32a1.8,1.8,0,0,0,.54,1.29,1.83,1.83,0,0,0,1.29.53h1.83l.15,35.69a1.8,1.8,0,0,0,.54,1.29,1.83,1.83,0,0,0,1.29.53l76.84-.27a1.78,1.78,0,0,0,1.29-.54,1.75,1.75,0,0,0,.53-1.29l-.14-35.69h1.83A1.89,1.89,0,0,0,176,71.4,1.86,1.86,0,0,0,176.52,70.1ZM92.36,68.56V64.91l14.63,0,0,3.65ZM96,72.21l11,0,.1,12-11,0Zm.14,33.86,0-18.22,11,0,0,18.21Zm27.44-.1,0-14.63,7.32,0,.05,14.64Zm11,0-.05-14.63,7.32,0,0,14.64Zm11,0-.06-16.46a1.82,1.82,0,0,0-.54-1.29,1.76,1.76,0,0,0-1.3-.53l-21.95.07a1.83,1.83,0,0,0-1.82,1.84L120,106l-9.15,0-.08-22,43.91-.15.08,22ZM158.23,72l11,0,.1,12-11,0Zm.14,33.86,0-18.21,11,0,0,18.21Zm-.15-37.52V64.68l14.63-.06,0,3.66Z"/></g></g></svg>