<svg xmlns="http://www.w3.org/2000/svg" viewBox="0 0 262.46 220.74"><defs><style>.cls-1{fill:#fff;}.cls-2{font-size:25.61px;font-family:Nunito-Regular, Nunito;}.cls-2,.cls-6{fill:#deafe6;}.cls-3{font-family:Nunito-Bold, Nunito;font-weight:700;}.cls-4{letter-spacing:-0.03em;}.cls-5{letter-spacing:-0.04em;}</style></defs><g id="Capa_2" data-name="Capa 2"><g id="Capa_2-2" data-name="Capa 2"><rect class="cls-1" width="262.46" height="220.74" rx="22.12"/><text class="cls-2" transform="translate(59.87 143.94)">Visitanos en<tspan class="cls-3"><tspan class="cls-4" x="-11.14" y="25.61">A</tspan><tspan class="cls-5" x="7.17" y="25.61">v</tspan><tspan x="19.67" y="25.61">. Ossa 325,</tspan><tspan x="15.61" y="51.22">La Reina </tspan></tspan></text><path class="cls-6" d="M134.62,39.23a3,3,0,0,0-2.18.92,3,3,0,0,0-5.21,2.11v3.31a.86.86,0,1,0,1.71,0V42.26a1.33,1.33,0,1,1,2.65,0v3.3h0a.86.86,0,1,0,1.71,0h0v-3.3a1.33,1.33,0,1,1,2.65,0v3.3a.85.85,0,1,0,1.7,0v-3.3a3,3,0,0,0-3-3"/><path class="cls-6" d="M132.42,54.72a5.21,5.21,0,0,1-5.2-5.2V48.38a.87.87,0,1,1,1.73,0v1.14a3.48,3.48,0,0,0,7,0V48.36a.87.87,0,0,1,1.73,0v1.16a5.21,5.21,0,0,1-5.21,5.2"/><path class="cls-6" d="M132.3,59.47a13.15,13.15,0,1,1,13.14-13.14A13.16,13.16,0,0,1,132.3,59.47Zm0-23.88A10.74,10.74,0,1,0,143,46.33,10.75,10.75,0,0,0,132.3,35.59Z"/><path class="cls-6" d="M118,76.72l9.15,0A1.83,1.83,0,0,0,129,74.85l-.05-8.24a1.84,1.84,0,0,0-1.83-1.83l-9.15,0a1.82,1.82,0,0,0-1.82,1.83l0,8.25a1.8,1.8,0,0,0,.54,1.29A1.83,1.83,0,0,0,118,76.72Zm1.78-8.25,5.49,0,0,4.59h-5.49Z"/><path class="cls-6" d="M138.15,76.65l9.14,0a1.83,1.83,0,0,0,1.83-1.84l-.05-8.24a1.87,1.87,0,0,0-.54-1.29,1.82,1.82,0,0,0-1.3-.54l-9.15,0a1.82,1.82,0,0,0-1.82,1.83l.05,8.25a1.83,1.83,0,0,0,1.84,1.82Zm1.78-8.25,5.48,0,0,4.58L140,73Z"/><polygon class="cls-6" points="174.66 60.96 174.66 60.96 174.66 60.96 174.66 60.96"/><path class="cls-6" d="M176.52,70.1l0-7.32a1.8,1.8,0,0,0-.54-1.29,1.83,1.83,0,0,0-1.29-.53L158.19,61l0-7.32H160a1.8,1.8,0,0,0,1.29-.54,1.83,1.83,0,0,0,.53-1.29l0-7.32a1.83,1.83,0,0,0-.55-1.29,1.79,1.79,0,0,0-1.29-.53l-12.47,0a16.34,16.34,0,0,1,.87,3.65l9.78,0,0,3.66-9.81,0a15.47,15.47,0,0,1-.87,3.67l7,0,.12,26.54-43.91.15-.12-26.53,6.85,0a16.38,16.38,0,0,1-.9-3.65l-9.62,0V46.56l9.59,0a16.27,16.27,0,0,1,.85-3.66l-12.29,0a1.82,1.82,0,0,0-1.82,1.83l0,7.32h0a1.83,1.83,0,0,0,1.83,1.82h1.83l0,7.32-16.47,0a1.84,1.84,0,0,0-1.82,1.84l0,7.32a1.8,1.8,0,0,0,.54,1.29,1.83,1.83,0,0,0,1.29.53h1.83l.15,35.69a1.8,1.8,0,0,0,.54,1.29,1.83,1.83,0,0,0,1.29.53l76.84-.27a1.78,1.78,0,0,0,1.29-.54,1.75,1.75,0,0,0,.53-1.29l-.14-35.69h1.83A1.89,1.89,0,0,0,176,71.4,1.86,1.86,0,0,0,176.52,70.1ZM92.36,68.56V64.91l14.63,0,0,3.65ZM96,72.21l11,0,.1,12-11,0Zm.14,33.86,0-18.22,11,0,0,18.21Zm27.44-.1,0-14.63,7.32,0,.05,14.64Zm11,0-.05-14.63,7.32,0,0,14.64Zm11,0-.06-16.46a1.82,1.82,0,0,0-.54-1.29,1.76,1.76,0,0,0-1.3-.53l-21.95.07a1.83,1.83,0,0,0-1.82,1.84L120,106l-9.15,0-.08-22,43.91-.15.08,22ZM158.23,72l11,0,.1,12-11,0Zm.14,33.86,0-18.21,11,0,0,18.21Zm-.15-37.52V64.68l14.63-.06,0,3.66Z"/></g></g></svg>