<svg xmlns="http://www.w3.org/2000/svg" viewBox="0 0 262.46 220.74"><defs><style>.cls-1{fill:#fff;}.cls-2{font-size:25.61px;font-family:Nunito-Regular, Nunito;}.cls-2,.cls-7{fill:#deafe6;}.cls-3{letter-spacing:-0.01em;}.cls-4{letter-spacing:-0.01em;}.cls-5{font-family:Nunito-Bold, Nunito;font-weight:700;}.cls-6{letter-spacing:-0.01em;}</style></defs><g id="Capa_2" data-name="Capa 2"><g id="Capa_2-2" data-name="Capa 2"><rect class="cls-1" width="262.46" height="220.74" rx="22.12"/><text class="cls-2" transform="translate(17.48 149.11)"><tspan class="cls-3">F</tspan><tspan x="13.88" y="0">acilidades de </tspan><tspan class="cls-4" x="168.34" y="0">P</tspan><tspan x="184.58" y="0">ago</tspan><tspan class="cls-5"><tspan x="19.95" y="25.61">Débito / C</tspan><tspan class="cls-6" x="138.19" y="25.61">r</tspan><tspan x="147.75" y="25.61">édito</tspan></tspan></text><rect class="cls-7" x="98.27" y="96.14" width="65.61" height="1.08"/><rect class="cls-7" x="98.27" y="98.94" width="65.61" height="1.08"/><path class="cls-7" d="M160.67,50.74h-14.4a16.17,16.17,0,0,1-.52,3.84h14.92a9.37,9.37,0,0,1,9.26,8.07h-29a16.39,16.39,0,0,1-22.13,0H91.51a9.37,9.37,0,0,1,9.26-8.07H113.9a16.17,16.17,0,0,1-.52-3.84H100.77a13.2,13.2,0,0,0-13.19,13.2V95.31a13.2,13.2,0,0,0,13.19,13.19h59.9a13.2,13.2,0,0,0,13.19-13.19V63.94A13.2,13.2,0,0,0,160.67,50.74ZM170,95.31a9.36,9.36,0,0,1-9.36,9.35h-59.9a9.36,9.36,0,0,1-9.36-9.35V73.1H170Z"/><path class="cls-7" d="M125.36,50.6a.9.9,0,0,0,.9-.9V46.18a1.41,1.41,0,1,1,2.81,0V49.7a.91.91,0,0,0,1.81,0V46.18a1.41,1.41,0,1,1,2.81,0v3.5a.91.91,0,1,0,1.81,0v-3.5A3.22,3.22,0,0,0,132.29,43,3.18,3.18,0,0,0,130,44a3.21,3.21,0,0,0-5.53,2.23V49.7A.9.9,0,0,0,125.36,50.6Z"/><path class="cls-7" d="M130,59.39a5.51,5.51,0,0,0,5.51-5.51V52.65a.92.92,0,0,0-1.83,0v1.23a3.69,3.69,0,0,1-7.37,0V52.67a.92.92,0,1,0-1.83,0v1.21A5.52,5.52,0,0,0,130,59.39Z"/><path class="cls-7" d="M129.83,64.43a13.94,13.94,0,1,0-13.94-13.94A13.95,13.95,0,0,0,129.83,64.43Zm0-25.32a11.39,11.39,0,1,1-11.39,11.38A11.39,11.39,0,0,1,129.83,39.11Z"/></g></g></svg>